<svg xmlns="http://www.w3.org/2000/svg">

	<!-- header -->

    <symbol id="logo" viewBox="0 0 58 40">
        <path d="M0 8.56477C0 6.10363 0.8 4.13472 2.4 2.46114C4.1 0.88601 6.1 0 8.6 0C11.2 0 13.2 0.689119 14.8 2.1658L13.6 3.93782C13 3.34715 12.2 2.95337 11.3 2.65803C10.4 2.36269 9.6 2.1658 8.7 2.1658C6.8 2.1658 5.3 2.75648 4.1 3.93782C3 5.21762 2.5 6.6943 2.5 8.56477C2.5 10.4352 3.1 12.0104 4.2 13.2902C5.4 14.5699 6.9 15.1606 8.8 15.1606C9.7 15.1606 10.7 14.9637 11.6 14.5699C12.5 14.1762 13.3 13.6839 14 12.9948L15.3 14.6684C13.5 16.4404 11.3 17.3264 8.7 17.3264C6.1 17.3264 4 16.5389 2.4 14.8653C0.8 13.0933 0 11.0259 0 8.56477Z"/>
        <path d="M18.3 17.0311V0.295334H20.6V7.58031H29.4V0.295334H31.8V16.9326H29.4V9.64767H20.6V16.9326H18.3V17.0311Z"/>
        <path d="M35.2 8.56477C35.2 6.20207 36 4.13472 37.7 2.46114C39.3 0.787565 41.4 0 43.9 0C46.4 0 48.5 0.787565 50.1 2.46114C51.8 4.13472 52.6 6.10363 52.6 8.56477C52.6 11.0259 51.8 13.0933 50.1 14.7668C48.4 16.4404 46.4 17.3264 43.9 17.3264C41.4 17.3264 39.3 16.4404 37.7 14.7668C36 13.0933 35.2 11.0259 35.2 8.56477ZM37.7 8.56477C37.7 10.4352 38.3 12.0104 39.5 13.2902C40.7 14.5699 42.2 15.1606 44 15.1606C45.8 15.1606 47.3 14.5699 48.5 13.2902C49.7 12.0104 50.3 10.4352 50.3 8.56477C50.3 6.79275 49.7 5.21762 48.5 4.03627C47.3 2.85492 45.8 2.1658 44 2.1658C42.2 2.1658 40.7 2.75648 39.5 4.03627C38.2 5.21762 37.7 6.6943 37.7 8.56477Z"/>
        <path d="M0 29.2383C0 26.7772 0.8 24.8083 2.4 23.1347C4.1 21.5596 6.1 20.6736 8.6 20.6736C11.2 20.6736 13.2 21.3627 14.8 22.8394L13.6 24.6114C13 24.0207 12.2 23.6269 11.3 23.3316C10.4 23.0363 9.5 22.8394 8.7 22.8394C6.8 22.8394 5.3 23.43 4.1 24.6114C3 25.7927 2.4 27.3679 2.4 29.1399C2.4 31.0104 3 32.5855 4.1 33.8653C5.3 35.1451 6.8 35.7357 8.7 35.7357C9.6 35.7357 10.6 35.5389 11.5 35.1451C12.4 34.7513 13.2 34.2591 13.9 33.5699L15.2 35.2435C13.4 37.0155 11.2 37.9015 8.6 37.9015C6 37.9015 3.9 37.114 2.3 35.4404C0.8 33.7668 0 31.6995 0 29.2383Z"/>
        <path d="M16.8 29.2383C16.8 26.7772 17.6 24.8083 19.2 23.1347C20.8 21.5596 22.9 20.6736 25.4 20.6736C28 20.6736 30 21.3627 31.6 22.8394L30.4 24.6114C29.8 24.0207 29 23.6269 28.1 23.3316C27.2 23.0363 26.3 22.8394 25.5 22.8394C23.6 22.8394 22.1 23.43 20.9 24.6114C19.8 25.7927 19.2 27.3679 19.2 29.1399C19.2 31.0104 19.8 32.5855 20.9 33.8653C22.1 35.1451 23.6 35.7357 25.5 35.7357C26.4 35.7357 27.4 35.5389 28.3 35.1451C29.2 34.7513 30 34.2591 30.7 33.5699L32 35.2435C30.2 37.0155 28 37.9015 25.4 37.9015C22.8 37.9015 20.7 37.114 19.1 35.4404C17.6 33.7668 16.8 31.6995 16.8 29.2383Z"/>
        <path d="M33.6 29.2383C33.6 26.8756 34.4 24.8083 36.1 23.1347C37.7 21.4611 39.8 20.6736 42.3 20.6736C44.8 20.6736 46.9 21.4611 48.5 23.1347C50.1 24.8083 51 26.7772 51 29.2383C51 31.6995 50.2 33.7668 48.5 35.4404C46.8 37.114 44.8 38 42.3 38C39.8 38 37.7 37.114 36.1 35.4404C34.4 33.7668 33.6 31.6995 33.6 29.2383ZM36 29.2383C36 31.1088 36.6 32.6839 37.8 33.9637C39 35.2435 40.5 35.8342 42.3 35.8342C44.1 35.8342 45.6 35.2435 46.8 33.9637C48 32.6839 48.6 31.1088 48.6 29.2383C48.6 27.4663 48 25.8912 46.8 24.7098C45.6 23.5285 44.1 22.8394 42.3 22.8394C40.5 22.8394 39 23.43 37.8 24.7098C36.6 25.8912 36 27.3679 36 29.2383Z"/>
    </symbol>

    <symbol id="phone-icon" viewBox="0 0 400 400">
        <path d="M401.129,311.475c-1.137-3.426-8.371-8.473-21.697-15.129c-3.61-2.098-8.754-4.949-15.41-8.566
		c-6.662-3.617-12.709-6.95-18.13-9.996c-5.432-3.045-10.521-5.995-15.276-8.846c-0.76-0.571-3.139-2.234-7.136-5
		c-4.001-2.758-7.375-4.805-10.14-6.14c-2.759-1.327-5.473-1.995-8.138-1.995c-3.806,0-8.56,2.714-14.268,8.135
		c-5.708,5.428-10.944,11.324-15.7,17.706c-4.757,6.379-9.802,12.275-15.126,17.7c-5.332,5.427-9.713,8.138-13.135,8.138
		c-1.718,0-3.86-0.479-6.427-1.424c-2.566-0.951-4.518-1.766-5.858-2.423c-1.328-0.671-3.607-1.999-6.845-4.004
		c-3.244-1.999-5.048-3.094-5.428-3.285c-26.075-14.469-48.438-31.029-67.093-49.676c-18.649-18.658-35.211-41.019-49.676-67.097
		c-0.19-0.381-1.287-2.19-3.284-5.424c-2-3.237-3.333-5.518-3.999-6.854c-0.666-1.331-1.475-3.283-2.425-5.852
		s-1.427-4.709-1.427-6.424c0-3.424,2.713-7.804,8.138-13.134c5.424-5.327,11.326-10.373,17.7-15.128
		c6.379-4.755,12.275-9.991,17.701-15.699c5.424-5.711,8.136-10.467,8.136-14.273c0-2.663-0.666-5.378-1.997-8.137
		c-1.332-2.765-3.378-6.139-6.139-10.138c-2.762-3.997-4.427-6.374-4.999-7.139c-2.852-4.755-5.799-9.846-8.848-15.271
		c-3.049-5.424-6.377-11.47-9.995-18.131c-3.615-6.658-6.468-11.799-8.564-15.415C98.986,9.233,93.943,1.997,90.516,0.859
		C89.183,0.288,87.183,0,84.521,0c-5.142,0-11.85,0.95-20.129,2.856c-8.282,1.903-14.799,3.899-19.558,5.996
		c-9.517,3.995-19.604,15.605-30.264,34.826C4.863,61.566,0.01,79.271,0.01,96.78c0,5.135,0.333,10.131,0.999,14.989
		c0.666,4.853,1.856,10.326,3.571,16.418c1.712,6.09,3.093,10.614,4.137,13.56c1.045,2.948,2.996,8.229,5.852,15.845
		c2.852,7.614,4.567,12.275,5.138,13.988c6.661,18.654,14.56,35.307,23.695,49.964c15.03,24.362,35.541,49.539,61.521,75.521
		c25.981,25.98,51.153,46.49,75.517,61.526c14.655,9.134,31.314,17.032,49.965,23.698c1.714,0.568,6.375,2.279,13.986,5.141
		c7.614,2.854,12.897,4.805,15.845,5.852c2.949,1.048,7.474,2.43,13.559,4.145c6.098,1.715,11.566,2.905,16.419,3.576
		c4.856,0.657,9.853,0.996,14.989,0.996c17.508,0,35.214-4.856,53.105-14.562c19.219-10.656,30.826-20.745,34.823-30.269
		c2.102-4.754,4.093-11.273,5.996-19.555c1.909-8.278,2.857-14.985,2.857-20.126C401.99,314.814,401.703,312.819,401.129,311.475z"/>
    </symbol>

	<!-- hero -->

	<symbol id="leaves" viewBox="0 0 20 20">
		<path class="st0" d="M2.3,9.3c0,0.2,0.1,0.4,0.1,0.6C2.4,10.7,2.5,12,2.5,12H3C3,12,3,9.9,2.7,8.8c-0.3-1.2-0.4-3.4,0.3-5L2.5,3.6
		c0,0-0.6,1.2-0.6,3.1c0,1.2,0.1,1.7,0.2,2.2C1.7,8.6,0.6,7.6,0.7,5.5C0.9,3.1,3,0.9,3,0.9s3.7,3.5,0.4,7.4l0.4,0.3
		c0,0,1.5-1.7,1.5-3.6c0-1.9-0.8-3.5-2.3-4.8c0,0-2.6,2.5-2.8,5.5C0.1,8.5,2.2,9.5,2.2,9.5L2.3,9.3z"/>
		<path class="st0" d="M7.5,6.7C3.8,7.8,4,11.4,4.1,12.2c-1.3,1.3-1.9,2.5-1.9,2.5l0.4,0.2c3.8-6.3,9.7-5.1,9.7-5.1V9.3
		c-3.6-0.4-6.1,1-7.8,2.4l0,0C4.4,10.4,5,7.3,8.8,7c4.4-0.1,6.5,2.5,6.5,2.5c-2.3,3.7-4.9,4.2-6.5,4.4C7.1,14.2,5,13,5,13l-0.2,0.4
		c0,0,1.8,1.2,4.1,1c5-0.6,6.9-5,6.9-5C15.3,8.4,11.6,5.7,7.5,6.7z"/>
	</symbol>

	<symbol id="truck" viewBox="0 0 20 20">
		<path class="st0" d="M2.9,5.7l1-0.8c0,0,0.1,0,0.1,0c0.3,0,0.5-0.2,0.5-0.5c0-0.2-0.1-0.3-0.2-0.4V1.9H3.8V4
		C3.6,4.1,3.5,4.2,3.5,4.4c0,0,0,0.1,0,0.1l-1,0.8L2.9,5.7z"/>
		<path class="st0" d="M18.1,11.1V7.9c0-1-0.4-1.4-0.4-1.4s-1-1.3-1.6-2.1s-1.4-0.8-1.4-0.8h-3.4V3.1c0-0.7-0.5-1.2-1.2-1.2H7.2
		C6.5,0.9,5.3,0.2,4,0.2C1.8,0.2,0.1,2,0.1,4.2c0,0.9,0.3,1.7,0.8,2.4V11c0,0.7,0.5,1.2,1.2,1.2h0.5c0,0,0,0.1,0,0.1
		c0,1.2,1,2.2,2.2,2.2c1.2,0,2.2-1,2.2-2.2c0-0.1,0-0.1,0-0.1H10h0.1c0.3,0,1,0,1.9,0c0,0,0,0.1,0,0.1c0,1.2,1,2.2,2.2,2.2
		c1.2,0,2.2-1,2.2-2.2c0-0.1,0-0.1,0-0.1c0.1,0,0.2,0,0.2,0C18.3,12.3,18.1,11.1,18.1,11.1z M17.6,7.6c0,0,0,0.1,0,0.3h-3.9
		c-0.2,0-0.4-0.2-0.4-0.4V5.9c0-0.2,0.2-0.4,0.4-0.4h2.6c0.3,0.3,0.6,0.7,0.8,1C17.6,7.1,17.6,7.6,17.6,7.6z M4,0.8
		c1.9,0,3.5,1.5,3.5,3.5S5.9,7.7,4,7.7S0.6,6.1,0.6,4.2S2.1,0.8,4,0.8z M4.7,14c-0.9,0-1.6-0.7-1.6-1.6s0.7-1.6,1.6-1.6
		s1.6,0.7,1.6,1.6S5.6,14,4.7,14z M6.7,11.7c-0.3-0.8-1.1-1.5-2-1.5c-0.9,0-1.7,0.6-2,1.5H2c-0.3,0-0.6-0.3-0.6-0.6V7.1
		c0.7,0.6,1.6,1,2.6,1c2.2,0,3.9-1.8,3.9-3.9c0-0.6-0.2-1.2-0.4-1.7h2.6c0.3,0,0.6,0.3,0.6,0.6v8c0,0.3-0.3,0.6-0.6,0.6H6.7z
		 M14.1,14c-0.9,0-1.6-0.7-1.6-1.6s0.7-1.6,1.6-1.6s1.6,0.7,1.6,1.6S15,14,14.1,14z M16.6,11.8h-0.4c-0.3-0.9-1.1-1.5-2-1.5
		c-1,0-1.8,0.6-2,1.5h-1c0.2-0.2,0.3-0.4,0.3-0.7V4c0,0,2.2,0,3.1,0c0.9,0,1.3,0.6,1.3,0.6S15.8,4.8,16,5h-2.3
		c-0.5,0-0.8,0.4-0.8,0.8v1.6c0,0.5,0.4,0.8,0.8,0.8h4c0,0.8,0,2,0,2.6C17.6,11.9,16.6,11.8,16.6,11.8z"/>
	</symbol>

	<symbol id="ruler" viewBox="0 0 20 20">
		<path class="st0" d="M4.3,3c0,0.2,0.4,0.4,1,0.4c0.6,0,1-0.2,1-0.4c0-0.2-0.4-0.4-1-0.4C4.8,2.6,4.3,2.7,4.3,3z"/>
		<path class="st0" d="M15.1,6.7c0-1-0.8-1.8-1.8-1.8h-0.4v0H4.1c0,0-2.4,0.1-3.5-1.8c0.1-1.4,1.2-2.4,2.6-2.4h4
		c1.5,0,2.6,1.2,2.6,2.6v0.5h0.5V3.4c0-1.8-1.4-3.2-3.2-3.2H3.3c-1.8,0-3.2,1.4-3.2,3.2v1.3v0.2v3.2c0,1.8,1.4,3.2,3.2,3.2H4v-0.5
		H3.2c-1.5,0-2.6-1.2-2.6-2.6V4.9V4.7V4C0.9,4.4,1.9,5.4,4,5.4c3,0,8.8,0,8.8,0h0.5c0.7,0,1.2,0.5,1.2,1.2v0.6v0.2
		c0,0.7-0.5,1.2-1.2,1.2h-0.1v0H6.9c-1,0-1.8,0.8-1.8,1.8v2.7c0,1,0.8,1.8,1.8,1.8h6.4c1,0,1.8-0.8,1.8-1.8v-2.7c0,0,0-2.4,0-3.1
		c0,0,0,0,0-0.1V6.7z M14.5,13.3c0,0.7-0.5,1.2-1.2,1.2H6.8c-0.7,0-1.2-0.5-1.2-1.2v-2.9c0-0.7,0.5-1.2,1.2-1.2h1.9v1.7h0.5V9.2h2.3
		v0h0.9v1.7h0.5V9.2h0.4c0.5,0,1-0.2,1.3-0.5V13.3z"/>
	</symbol>

	<!-- benefits -->

	<symbol id="helpful-icon" viewBox="-1 0 21 21">
		<path class="st0" d="M17.4,5.8c0.2-0.2,0.4-0.4,0.5-0.6c0.7-0.9,0.6-1.3-0.1-1.9S16,3.6,16,3.6s-0.1,0.1-0.2,0.2
		c-1.1-1-2.5-1.8-4.1-2.2c-0.6-0.9-1.5-1.5-2.5-1.5c-1.1,0-2,0.7-2.6,1.6c-1.3,0.4-2.5,1.1-3.5,2C2.9,3.6,2.5,3.2,2,3.1
		C1.3,3,0.6,3.5,0.5,4.2c0,0.4,0.4,1,0.9,1.6C0.5,7.2,0,8.8,0,10.6c0,5.1,4.2,9.3,9.4,9.3c1.8,0,3.6-0.5,5-1.4l-0.3-0.7c0,0,0,0,0,0
		c-1.3-3.3-1-5.4-0.9-6.4c0.3-1.1,1.4-2.6,2-3.4c0.4-0.5,1-1,1.6-1.6C17.6,7.6,18,9,18,10.6c0,2.3-1,4.4-2.5,6l0.6,0.5
		c1.7-1.7,2.7-4,2.7-6.5C18.8,8.8,18.3,7.2,17.4,5.8z M9.2,0.9c1.3,0,2.3,1.2,2.3,2.7s-1,2.7-2.3,2.7S6.9,5.2,6.9,3.6
		S7.9,0.9,9.2,0.9z M9.2,7.1c1.7,0,3.1-1.6,3.1-3.5c0-0.4-0.1-0.7-0.2-1.1c1.2,0.4,2.2,1,3.1,1.8c-0.8,0.7-2,1.6-2.6,2
		C11.7,7,10.2,7.7,9,7.7c-1.2,0-1.8-0.5-2.7-0.9C5.5,6.4,4.2,4.9,3.6,4.3c0.8-0.7,1.7-1.2,2.6-1.6C6.2,3,6.1,3.3,6.1,3.6
		C6.1,5.6,7.5,7.1,9.2,7.1z M0.8,10.6c0-1.5,0.4-2.9,1.1-4.2c0.2,0.2,0.3,0.3,0.3,0.3s2.5,2.9,3,3.6c0.5,0.7-0.1,1.2-0.5,3
		c-0.3,1.4-0.3,3.3-0.3,4.2C2.2,15.9,0.8,13.4,0.8,10.6z M16.3,5.8c-0.4,0.4-1.8,1.6-3,3.5c-1.2,1.9-1,3.4-0.9,4.5
		c0.1,1.1,0.4,2.1,0.5,2.5c0.1,0.3,0.5,1.4,0.6,1.7c-1.2,0.6-2.6,1-4,1c-1.6,0-3-0.4-4.3-1.1c0-3.4,0.2-3.9,0.3-4.4
		C5.5,13,5.8,12,6.1,11.2C6.3,10.5,6,9.9,5.7,9.6C5.4,9.3,2.5,5.8,2,5.1c-0.6-0.7-0.7-1-0.2-1.2c0.5-0.3,1.8,1.3,2.4,2
		c0.5,0.7,2.8,2.6,4.9,2.5s3.6-1.2,4.2-1.6c0.5-0.4,3.1-2.5,3.5-2.8c0.4-0.3,0.9,0,0.8,0.3C17.5,4.6,16.7,5.4,16.3,5.8z"/>
	</symbol>

	<symbol id="tasty-icon" viewBox="-0.25 0 21 21">
		<path class="st0" d="M10.3,0.2C4.7,0.2,0.1,4.8,0.1,10.4c0,5.6,4.6,10.2,10.2,10.2c5.6,0,10.2-4.6,10.2-10.2
		C20.5,4.8,15.9,0.2,10.3,0.2z M10.3,19.8c-5.2,0-9.4-4.2-9.4-9.4C0.9,5.2,5.1,1,10.3,1s9.4,4.2,9.4,9.4
		C19.7,15.6,15.5,19.8,10.3,19.8z"/>
		<path class="st0" d="M10.3,15.7c-3.5,0-5.6-3.1-5.6-3.1L4,13.1c2.8,3.6,6.3,3.5,6.3,3.5s3.5,0.2,6.3-3.5l-0.7-0.5
			C15.9,12.6,13.8,15.7,10.3,15.7z"/>
		<path class="st0" d="M6.9,11.5C9.3,10.4,9.7,9,9.7,8.3c0-0.8-0.5-1.7-1.4-1.7c-1,0-1.4,0.5-1.4,0.5S6.5,6.6,5.5,6.6
			c-0.9,0-1.4,1-1.4,1.7C4.1,9,4.5,10.4,6.9,11.5z M6.9,8.1c0.5-0.8,1.9-0.9,2,0.1c0,1.4-2,2.4-2,2.4s-2-1-2-2.4
			C5,7.2,6.4,7.3,6.9,8.1z"/>
		<path class="st0" d="M13.7,11.5c2.4-1.1,2.8-2.5,2.8-3.1c0-0.8-0.5-1.7-1.4-1.7c-1,0-1.4,0.5-1.4,0.5s-0.4-0.5-1.4-0.5
			c-0.9,0-1.4,1-1.4,1.7C10.9,9,11.3,10.4,13.7,11.5z M13.7,8.1c0.5-0.8,1.9-0.9,2,0.1c0,1.4-2,2.4-2,2.4s-2-1-2-2.4
			C11.8,7.2,13.2,7.3,13.7,8.1z"/>
	</symbol>

	<symbol id="powerful-icon" viewBox="-0.5 0 23 21">
		<path class="st0" d="M17.4,3.1c-2.1,0-4.8,1.5-4.7,4.6c0,0-4.1-1.3-5.3,3c0,0-0.7-1.5-1.6-2.2C4.8,7.8,3.6,6,3.5,5.1
		c0.1-0.5,0.2-0.5,0.4-0.6c0.1,0,0.1,0.8,1,0.9c0.8-0.1,1-0.3,1.3-0.7l0.9-1c0,0,0.9-1.2,0.1-1.8C6.5,1.2,5.2-0.1,3.6,0.2
		C2.7,0.4,2,1.1,2,1.1L0.8,2.2C0.8,2.2,0,3,0,4.6c0,1.4,0.3,3.7,0.3,3.7s0.3,1.8,0.4,2.4c0.1,0.6,0.9,4.1,2.8,6
		c1.2,1.4,1.9,2,2.5,2.1c1,0,1.5-0.6,2.3-0.6c0.8,0,1.6,0.6,3.3,0.6s5.5-1,7.1-5.9c1.5-0.6,3.6-1.7,3.6-5C22.3,4.6,19.4,3.1,17.4,3.1
		z M18.1,12.3c-1.1,4.4-4.6,5.6-6.3,5.8c-1.6,0-2.5-0.6-3.7-0.6c-0.7,0-1.7,0.6-2,0.6s-1.1-0.7-2.1-1.8s-1.4-2.1-1.8-2.9
		c-0.4-0.8-1.1-4-1.1-4S0.8,6.2,0.8,4.8c0-1.3,0.6-2.1,0.6-2.1S2.2,2,3,1.3c0.9-0.7,2-0.2,2-0.2s1.1,0.7,1.5,1.1c0.5,0.4,0,0.8,0,0.8
		S5.4,4.4,5,4.5C4.5,4.6,4.4,3.4,4.4,3.4C3.9,3.6,3.1,3.8,2.8,4.7C2.5,5.8,4.1,8.1,5.3,9.2c1.1,1.1,1.8,2.9,1.8,2.9L8,11.8
		c0,0-0.1-2.1,1.7-3.2c2-1.1,3.8,0.4,3.8,0.4c-0.6-5,3.8-5.1,4.1-5.1s3.8,0.3,4.1,3.8C21.5,11.7,18.1,12.3,18.1,12.3z"/>
	</symbol>

	<!-- contacts -->

	<symbol id="chocco-marker">
		<g>
			<path class="st0" d="M23,0C15,0,0,6,0,23s23,34,23,34s23-17,23-34S31,0,23,0z"/>
			<g>
				<path class="st1" d="M8.8,17.5c0-1.3,0.4-2.5,1.3-3.4c0.9-0.9,2-1.3,3.3-1.3c1.4,0,2.5,0.4,3.4,1.2l-0.6,1
					c-0.3-0.3-0.7-0.5-1.2-0.7s-1-0.3-1.4-0.3c-1,0-1.9,0.3-2.5,1c-0.6,0.7-0.9,1.5-0.9,2.5c0,1,0.3,1.9,0.9,2.6s1.5,1.1,2.5,1.1
					c0.5,0,1-0.1,1.5-0.3c0.5-0.2,0.9-0.5,1.3-0.9l0.7,0.9c-1,1-2.2,1.5-3.5,1.5s-2.5-0.5-3.4-1.4C9.2,20,8.8,18.8,8.8,17.5z"/>
				<path class="st1" d="M18.6,22.1v-9.2h1.3v4h4.8v-4H26v9.2h-1.3v-4h-4.8v4H18.6z"/>
				<path class="st1" d="M27.8,17.4c0-1.3,0.4-2.4,1.3-3.3c0.9-0.9,2-1.3,3.4-1.3c1.4,0,2.5,0.4,3.4,1.3c0.9,0.9,1.3,2,1.3,3.3
					c0,1.4-0.4,2.5-1.3,3.4s-2,1.4-3.4,1.4c-1.4,0-2.5-0.5-3.4-1.4C28.3,19.9,27.8,18.8,27.8,17.4z M29.1,17.4c0,1,0.3,1.9,1,2.6
					s1.5,1,2.4,1c1,0,1.8-0.3,2.4-1c0.6-0.7,1-1.6,1-2.6c0-1-0.3-1.8-1-2.5c-0.6-0.7-1.4-1-2.4-1c-1,0-1.8,0.3-2.4,1
					C29.5,15.6,29.1,16.4,29.1,17.4z"/>
				<path class="st1" d="M9.2,29.5c0-1.3,0.4-2.5,1.3-3.4c0.9-0.9,2-1.3,3.3-1.3c1.4,0,2.5,0.4,3.4,1.2l-0.6,1
					c-0.3-0.3-0.7-0.5-1.2-0.7s-1-0.3-1.4-0.3c-1,0-1.9,0.3-2.5,1c-0.6,0.7-0.9,1.5-0.9,2.5c0,1,0.3,1.9,0.9,2.6s1.5,1.1,2.5,1.1
					c0.5,0,1-0.1,1.5-0.3c0.5-0.2,0.9-0.5,1.3-0.9l0.7,0.9c-1,1-2.2,1.5-3.5,1.5s-2.5-0.5-3.4-1.4C9.6,32,9.2,30.8,9.2,29.5z"/>
				<path class="st1" d="M18.3,29.5c0-1.3,0.4-2.5,1.3-3.4c0.9-0.9,2-1.3,3.3-1.3c1.4,0,2.5,0.4,3.4,1.2l-0.7,1
					c-0.3-0.3-0.7-0.5-1.2-0.7s-1-0.3-1.4-0.3c-1,0-1.9,0.3-2.5,1c-0.6,0.7-0.9,1.5-0.9,2.5c0,1,0.3,1.9,0.9,2.6s1.5,1.1,2.5,1.1
					c0.5,0,1-0.1,1.5-0.3c0.5-0.2,0.9-0.5,1.3-0.9l0.7,0.9c-1,1-2.2,1.5-3.5,1.5c-1.4,0-2.5-0.5-3.4-1.4C18.7,32,18.3,30.8,18.3,29.5z
					"/>
				<path class="st1" d="M27.4,29.4c0-1.3,0.4-2.4,1.3-3.3c0.9-0.9,2-1.3,3.4-1.3c1.4,0,2.5,0.4,3.4,1.3c0.9,0.9,1.3,2,1.3,3.3
					c0,1.4-0.4,2.5-1.3,3.4s-2,1.4-3.4,1.4c-1.4,0-2.5-0.5-3.4-1.4C27.8,31.9,27.4,30.8,27.4,29.4z M28.7,29.4c0,1,0.3,1.9,1,2.6
					s1.5,1,2.4,1c1,0,1.8-0.3,2.4-1c0.6-0.7,1-1.6,1-2.6c0-1-0.3-1.8-1-2.5c-0.6-0.7-1.4-1-2.4-1c-1,0-1.8,0.3-2.4,1
					C29,27.6,28.7,28.4,28.7,29.4z"/>
			</g>
		</g>
	</symbol>

	<symbol id="vk" viewBox="0 0 35 35">
		<path class="st0" d="M36.5,26.8c0-0.1-0.1-0.2-0.1-0.2c-0.6-1.1-1.9-2.6-3.7-4.2l0,0l0,0l0,0h0c-0.8-0.8-1.3-1.3-1.5-1.6
		c-0.4-0.5-0.5-1-0.3-1.5c0.2-0.4,0.7-1.2,1.7-2.5c0.5-0.7,0.9-1.2,1.2-1.6c2.2-2.9,3.2-4.8,2.9-5.6l-0.1-0.2C36.5,9.1,36.3,9,36,8.9
		c-0.3-0.1-0.7-0.1-1.2,0l-5.5,0c-0.1,0-0.2,0-0.4,0c-0.2,0-0.2,0.1-0.2,0.1l-0.1,0l-0.1,0.1c-0.1,0-0.1,0.1-0.2,0.2
		c-0.1,0.1-0.1,0.2-0.2,0.3c-0.6,1.5-1.3,3-2,4.3c-0.5,0.8-0.9,1.5-1.3,2.1c-0.4,0.6-0.7,1-1,1.3c-0.3,0.3-0.5,0.5-0.7,0.7
		c-0.2,0.2-0.4,0.2-0.5,0.2c-0.1,0-0.2-0.1-0.3-0.1c-0.2-0.1-0.3-0.3-0.4-0.5c-0.1-0.2-0.2-0.4-0.2-0.7c0-0.3-0.1-0.6-0.1-0.8
		c0-0.2,0-0.5,0-0.9c0-0.4,0-0.7,0-0.8c0-0.5,0-1,0-1.6c0-0.6,0-1,0-1.3c0-0.3,0-0.7,0-1.1c0-0.4,0-0.7-0.1-0.9
		c0-0.2-0.1-0.4-0.2-0.6c-0.1-0.2-0.2-0.4-0.4-0.5c-0.2-0.1-0.4-0.2-0.6-0.3c-0.7-0.2-1.5-0.2-2.6-0.2c-2.4,0-3.9,0.1-4.6,0.5
		c-0.3,0.1-0.5,0.3-0.7,0.6c-0.2,0.3-0.3,0.4-0.1,0.5c0.8,0.1,1.3,0.4,1.6,0.8l0.1,0.2c0.1,0.2,0.2,0.5,0.3,0.9
		c0.1,0.4,0.1,0.9,0.2,1.4c0.1,0.9,0.1,1.7,0,2.4c-0.1,0.7-0.1,1.2-0.2,1.5c-0.1,0.4-0.1,0.7-0.3,0.9c-0.1,0.2-0.2,0.4-0.2,0.4
		c0,0.1-0.1,0.1-0.1,0.1c-0.2,0.1-0.3,0.1-0.5,0.1c-0.2,0-0.4-0.1-0.6-0.3c-0.3-0.2-0.5-0.4-0.8-0.7c-0.3-0.3-0.6-0.7-0.9-1.3
		c-0.3-0.6-0.7-1.2-1.1-2l-0.3-0.6c-0.2-0.4-0.5-0.9-0.8-1.6c-0.3-0.7-0.6-1.3-0.9-2C7.7,9.5,7.5,9.3,7.3,9.1L7.2,9.1
		C7.1,9,7,9,6.9,8.9C6.8,8.9,6.6,8.8,6.5,8.8l-5.2,0C0.7,8.8,0.3,9,0.1,9.2L0.1,9.3C0,9.4,0,9.5,0,9.6c0,0.1,0,0.3,0.1,0.5
		c0.8,1.8,1.6,3.5,2.5,5.2c0.9,1.7,1.7,3,2.3,4c0.7,1,1.3,2,2,2.9c0.7,0.9,1.1,1.5,1.4,1.7c0.2,0.3,0.4,0.4,0.5,0.6L9.3,25
		c0.3,0.3,0.8,0.7,1.3,1.1c0.6,0.4,1.2,0.8,2,1.3c0.7,0.4,1.6,0.8,2.5,1c1,0.3,1.9,0.4,2.8,0.3h2.2c0.4,0,0.8-0.2,1-0.4l0.1-0.1
		c0.1-0.1,0.1-0.2,0.1-0.4c0-0.2,0.1-0.3,0.1-0.5c0-0.5,0-1,0.1-1.5c0.1-0.4,0.2-0.8,0.3-1c0.1-0.2,0.3-0.4,0.4-0.6
		c0.2-0.2,0.3-0.2,0.3-0.3c0.1,0,0.1-0.1,0.2-0.1c0.3-0.1,0.7,0,1.1,0.3c0.4,0.3,0.8,0.7,1.2,1.1c0.4,0.4,0.8,0.9,1.3,1.5
		c0.5,0.5,1,1,1.3,1.2l0.4,0.2c0.3,0.2,0.6,0.3,1,0.4c0.4,0.1,0.8,0.2,1.1,0.1l4.9-0.1c0.5,0,0.9-0.1,1.1-0.2
		c0.3-0.2,0.4-0.3,0.5-0.5c0.1-0.2,0.1-0.4,0-0.7C36.6,27.1,36.6,26.9,36.5,26.8L36.5,26.8z M36.5,26.8"/>
	</symbol>

	<symbol id="facebook" viewBox="0 0 35 35">
		<path class="st0" d="M36.7,34.7c0,1.1-0.9,2-2,2h-9.4V22.5h4.8l0.7-5.5h-5.5v-3.5c0-1.6,0.4-2.7,2.7-2.7l2.9,0v-5
		c-0.5-0.1-2.2-0.2-4.3-0.2c-4.2,0-7.1,2.6-7.1,7.3V17h-4.8v5.5h4.8v14.2H2c-1.1,0-2-0.9-2-2V2c0-1.1,0.9-2,2-2h32.7c1.1,0,2,0.9,2,2
		V34.7z"/>
	</symbol>

	<symbol id="instagram" viewBox="0 0 35 35">
		<path class="st0" d="M32.3,0H4.4C2,0,0,1.9,0,4.3v28.1c0,2.4,2,4.3,4.4,4.3h27.9c2.4,0,4.4-1.9,4.4-4.3V4.3C36.7,1.9,34.7,0,32.3,0
		M26.4,5.7c0-0.6,0.5-1.1,1.1-1.1H31c0.6,0,1.1,0.5,1.1,1.1v3.4c0,0.6-0.5,1.1-1.1,1.1h-3.4c-0.6,0-1.1-0.5-1.1-1.1L26.4,5.7
		L26.4,5.7z M18.4,11.3c3.9,0,7.1,3.1,7.1,7s-3.2,7-7.1,7s-7.1-3.1-7.1-7C11.3,14.5,14.5,11.3,18.4,11.3 M33.2,32.1
		c0,0.6-0.5,1.1-1.1,1.1H4.6c-0.6,0-1.1-0.5-1.1-1.1V14.9H8c-0.6,0.9-0.8,2.5-0.8,3.5c0,6.1,5,11.1,11.2,11.1s11.2-5,11.2-11.1
		c0-1-0.1-2.6-0.9-3.5h4.6L33.2,32.1L33.2,32.1z"/>
	</symbol>

	<symbol id="twitter" viewBox="0 0 35 35">
		<path class="st0" d="M35.7,3.7c-1.5,0.9-3.1,1.5-4.8,1.9c-1.4-1.5-3.3-2.4-5.5-2.4c-4.2,0-7.5,3.5-7.5,7.7c0,0.6,0.1,1.2,0.2,1.8
		C11.8,12.3,6.3,9.2,2.6,4.5c-0.6,1.1-1,2.5-1,3.9c0,2.7,1.3,5,3.4,6.4c-1.2,0-2.4-0.4-3.4-1V14c0,3.7,2.6,6.9,6,7.6
		c-0.6,0.2-1.3,0.3-2,0.3c-0.5,0-1,0-1.4-0.1c1,3.1,3.7,5.3,7,5.4c-2.6,2.1-5.8,3.3-9.4,3.3c-0.6,0-1.2,0-1.8-0.1
		c3.3,2.2,7.3,3.5,11.5,3.5c13.9,0,21.4-11.8,21.4-22c0-0.3,0-0.7,0-1c1.5-1.1,2.8-2.4,3.8-4c-1.3,0.6-2.8,1-4.3,1.2
		C33.9,7,35.1,5.5,35.7,3.7"/>
	</symbol>

	<!-- goods -->

	<symbol id="arrow" viewBox="0 0 35 35">
		<polygon class="st0" points="14.2,12.7 1.5,0 0,1.5 11.3,12.7 0,24 1.5,25.5 14.2,12.7 14.2,12.7 "/>
	</symbol>

		<!-- composition -->
	
	<symbol id="grape">
		<path d="M16.443 12.7139C18.6035 11.225 18.0963 7.51466 15.5084 6.80076C15.3252 6.7491 14.5973 6.77728 14.508 6.69274C14.3624 6.55184 14.2732 5.88022 14.1605 5.67356C13.8364 5.07708 13.3198 4.59802 12.7139 4.30683C11.4458 3.69626 9.91467 3.95928 8.97064 5.01603C8.05948 3.7855 6.47201 3.40976 5.10058 4.072C4.49001 4.36319 3.96398 4.83755 3.62582 5.41994C3.45205 5.72053 3.32524 6.0446 3.25479 6.38746C3.17494 6.79607 3.27827 7.1718 3.24539 7.57102C3.22191 7.84812 3.28766 7.79176 2.98708 7.90448C2.818 7.97023 2.65361 8.05008 2.49393 8.14401C2.14637 8.35536 1.84578 8.63247 1.60156 8.95654C1.13659 9.5765 0.897057 10.3608 0.92054 11.1358C0.929934 11.488 1.00038 11.8403 1.1225 12.1738C1.19295 12.3663 1.28688 12.5542 1.39021 12.7327C1.43717 12.8078 1.5452 12.9205 1.56868 12.9957C1.63913 13.2117 1.63913 13.0379 1.5358 13.2446C1.33854 13.6297 0.9769 13.9068 0.803123 14.3295C0.62465 14.7569 0.54011 15.2172 0.544806 15.6822C0.549503 16.119 0.63874 16.5511 0.80782 16.9503C0.887664 17.1428 1.01917 17.3072 1.10371 17.4951C1.17416 17.6501 1.23052 17.636 1.19295 17.7675C1.17416 17.8286 0.911147 18.0211 0.873574 18.0634C0.300579 18.6974 -0.00470432 19.5334 -7.64548e-06 20.3741C0.0140824 22.1918 1.50762 23.7135 3.34872 23.6195C4.17533 23.5773 4.97377 23.2109 5.54207 22.6051C5.62661 22.5158 5.85674 22.079 5.95537 22.0462C6.03522 22.0227 6.44383 22.234 6.52837 22.2575C6.96046 22.3702 7.41604 22.3843 7.85753 22.3045C8.67944 22.1589 9.43091 21.6892 9.91937 21.0129C10.0556 20.8297 10.1307 20.5996 10.2622 20.4211C10.2951 20.3788 10.3186 20.2004 10.3609 20.1769C10.3796 20.1675 10.6661 20.2614 10.7272 20.2708C11.2063 20.3648 11.7088 20.3413 12.1832 20.2098C12.681 20.0689 13.146 19.8059 13.5264 19.4536C13.6297 19.355 13.9444 18.8477 14.0571 18.8055C14.1839 18.7632 14.6113 18.9511 14.7616 18.9698C15.7573 19.0779 16.7671 18.6833 17.4528 17.9601C18.9323 16.382 18.4203 13.6391 16.443 12.7139C16.5699 12.6246 16.6967 12.5401 16.8235 12.4509C16.6967 12.5401 16.5699 12.6246 16.443 12.7139ZM13.8035 9.35106C13.9209 9.21485 14.0383 9.05517 14.1182 8.89548C14.1464 8.84851 14.1699 8.80155 14.1933 8.74988C14.3061 8.51975 14.4 8.28491 14.4564 8.03599C14.5362 7.69313 14.4657 7.64616 14.8039 7.61329C15.128 7.58511 15.5178 7.74479 15.7855 7.90448C16.3256 8.22855 16.6779 8.79215 16.8188 9.39802C16.955 9.9898 16.8939 10.6379 16.6121 11.1781C16.4618 11.4693 16.2458 11.7229 15.9828 11.9154C15.8935 11.9812 15.1092 12.3569 15.1092 12.2724C15.1092 12.2583 15.1092 12.2395 15.1092 12.2254C15.1139 12.1174 15.1092 12 15.0998 11.892C15.0998 11.8732 15.0951 11.8591 15.0951 11.8403C15.0951 11.8403 15.0951 11.8356 15.0951 11.8309C14.9965 10.8728 14.508 9.9945 13.7143 9.44029C13.7472 9.41681 13.7753 9.38393 13.8035 9.35106C13.8176 9.33697 13.7753 9.38393 13.8035 9.35106C13.9209 9.21485 13.7753 9.38393 13.8035 9.35106ZM13.7378 10.746C13.7472 10.7554 13.7519 10.7648 13.7565 10.7741C13.874 10.9385 13.9632 11.117 14.0383 11.3002C14.0477 11.3237 14.0524 11.3424 14.0618 11.3659C14.0665 11.3753 14.0665 11.3847 14.0712 11.3941C14.0759 11.4082 14.0806 11.4223 14.0853 11.4364C14.137 11.5867 14.1605 11.7464 14.1839 11.9013C14.1839 11.9248 14.1886 11.9436 14.1886 11.9671C14.1886 11.9765 14.1886 11.9906 14.1933 12C14.1933 12.0235 14.198 12.0422 14.198 12.0657C14.198 12.0704 14.198 12.0751 14.198 12.0798C14.2074 12.2818 14.2027 12.5213 14.137 12.7139C14.1323 12.7327 14.1323 12.7514 14.1276 12.7655C13.7941 13.5734 13.2775 14.292 12.371 14.4845C11.8074 14.6066 11.1264 14.5033 10.6567 14.1511C10.6192 14.1276 10.5816 14.0994 10.5487 14.0759C9.5859 13.3432 9.40743 12.0235 9.98042 10.9902C10.5722 9.91935 11.6524 9.60468 12.7702 9.98041C12.7937 9.9898 12.8172 10.0039 12.8407 10.0133C12.8642 10.0227 12.8877 10.0368 12.9111 10.0462C12.9158 10.0462 12.9205 10.0509 12.9252 10.0509C12.991 10.0837 13.0567 10.1213 13.1178 10.1636C13.1742 10.2012 13.2305 10.2387 13.2869 10.281C13.3385 10.3186 13.3855 10.3608 13.4325 10.4078C13.4419 10.4172 13.4513 10.4219 13.456 10.4313C13.5217 10.483 13.7143 10.7178 13.7378 10.746C13.7425 10.7554 13.7096 10.7084 13.7378 10.746ZM8.81565 11.2532C8.78747 11.3565 8.76398 11.4646 8.7452 11.5679C8.07827 11.5867 7.49119 11.2908 7.03091 10.8258C6.74441 10.5111 6.54715 10.126 6.45792 9.708C6.02113 8.56202 7.08257 7.1718 8.14872 6.90409C8.02661 8.07356 8.56672 9.27121 9.52954 9.95223C9.19608 10.328 8.95185 10.7788 8.81565 11.2579C8.83443 11.1922 8.85322 11.1264 8.87201 11.0559C8.85322 11.1264 8.83443 11.1875 8.81565 11.2532C8.78747 11.3565 8.95185 10.7695 8.81565 11.2532ZM9.49667 14.3436C8.96594 14.7194 8.48688 15.3017 8.30371 15.9358C8.22856 15.917 8.15342 15.8982 8.07827 15.87C7.86692 15.7996 7.63678 15.7855 7.41604 15.7808C7.3268 15.7808 7.23757 15.7808 7.14833 15.7855C7.07788 15.7996 7.01213 15.8043 6.94168 15.8043C6.88531 15.809 6.82895 15.8137 6.77729 15.8278C6.77259 15.8278 6.7679 15.8278 6.7679 15.8278C6.74441 15.8372 6.72093 15.8419 6.69745 15.8419C5.93189 15.4239 5.42465 14.5597 5.46692 13.6814V13.6767C5.46692 13.6532 5.46692 13.6297 5.47162 13.6062C5.47162 13.6015 5.47162 13.6015 5.47162 13.5968C5.47162 13.5781 5.47631 13.5593 5.47631 13.5452V13.5405C5.48101 13.4747 5.48571 13.3855 5.50449 13.3197C5.51858 13.2305 5.54207 13.1413 5.56555 13.0567C5.56555 13.052 5.56555 13.052 5.57025 13.0473C5.57025 13.0426 5.57494 13.0379 5.57494 13.0332C5.62191 12.8736 5.69236 12.7327 5.76281 12.5824C5.80038 12.5166 5.83796 12.4509 5.88492 12.3851C6.00704 12.1972 6.16203 12.0282 6.3405 11.8873C6.39216 11.8356 6.44383 11.7933 6.50958 11.7604C6.52837 11.7464 6.54715 11.7323 6.56594 11.7229C6.58003 11.7135 6.59412 11.7041 6.60821 11.6994C7.1859 12.2113 7.92328 12.4931 8.69353 12.4931H8.70762C8.72171 12.6716 8.7405 12.9299 8.82504 13.0943C8.83443 13.1272 8.84383 13.1601 8.85792 13.1976C8.85792 13.2023 8.86261 13.2023 8.86261 13.207C8.87201 13.2399 8.8861 13.2728 8.89549 13.3104C9.027 13.6861 9.23365 14.0383 9.49667 14.3436ZM9.33698 6.09626C9.33698 6.09157 9.34167 6.08687 9.34167 6.08217V6.07748C10.4595 4.02973 13.6016 4.94558 13.6297 7.21407C13.6297 7.21877 13.6297 7.22346 13.6297 7.22816V7.23286C13.6297 7.77767 13.4419 8.3037 13.1131 8.7311C13.1084 8.73579 13.1084 8.73579 13.1037 8.74049C13.0286 8.83912 12.9393 8.92836 12.8501 9.0129C12.2301 8.81094 11.3753 8.77337 10.7742 9.07395C10.6849 9.10683 10.3421 9.32757 10.2669 9.32288C10.1448 9.31818 9.95694 9.11622 9.8724 9.04577C9.59999 8.81564 9.38395 8.51975 9.24304 8.19098C9.24304 8.18628 9.23835 8.18158 9.23835 8.18158C8.95655 7.51466 9.0223 6.65986 9.31819 6.11505C9.29471 6.17141 9.29941 6.16202 9.33698 6.09626C9.33698 6.09157 9.26653 6.22777 9.33698 6.09626ZM6.41095 4.64029C7.25166 4.64029 8.02191 5.11935 8.42113 5.87082C8.41643 5.88022 8.41643 5.88491 8.41173 5.89431C8.40704 5.9037 8.40234 5.91779 8.39764 5.92718C6.7585 6.08217 5.50449 7.54753 5.48101 9.17258C5.29314 9.09274 5.10997 8.97532 4.95498 8.83912C4.9362 8.82503 4.92211 8.81094 4.90332 8.79685C3.21252 7.52405 4.40547 4.64029 6.41095 4.64029ZM3.63991 8.67943C3.64461 8.68413 3.64461 8.68883 3.64931 8.69352C3.70567 8.79215 3.79021 8.94714 3.87475 9.03168C3.88884 9.05047 3.89823 9.06456 3.91232 9.08335C3.92171 9.09274 3.93111 9.10683 3.9405 9.11622C3.95459 9.13031 3.96398 9.1491 3.97807 9.16319C4.227 9.46378 4.55577 9.75027 4.91271 9.92405C5.10058 10.0227 5.48101 10.0696 5.62661 10.2012C5.7769 10.3327 5.87553 10.807 5.99295 10.9949C5.83326 11.0935 5.67827 11.2203 5.54676 11.3565C5.53737 11.3612 5.53267 11.3706 5.52328 11.3753C5.50919 11.3894 5.4998 11.3988 5.48571 11.4129C5.26966 11.6289 5.09119 11.8779 4.94089 12.1503C4.94089 12.155 4.9362 12.1597 4.9362 12.1597C4.88923 12.1972 4.86575 12.2442 4.86575 12.2959C4.85635 12.3194 4.84226 12.3428 4.83287 12.3663C4.83287 12.3663 4.83287 12.3663 4.83287 12.371C4.79999 12.4415 4.77181 12.5166 4.74363 12.5918C4.72015 12.6528 4.69197 12.7186 4.68258 12.7843C4.67788 12.8031 4.67318 12.8219 4.66849 12.8407C4.66379 12.8595 4.65909 12.8783 4.6544 12.897C4.6544 12.9017 4.6497 12.9111 4.6497 12.9158C4.645 12.9299 4.64031 12.944 4.64031 12.9581C4.64031 12.9628 4.64031 12.9628 4.64031 12.9675C4.61682 13.0708 4.60743 13.1788 4.57925 13.2822C4.57925 13.2869 4.57925 13.2869 4.57925 13.2869V13.2916C4.57925 13.2963 4.57925 13.301 4.57925 13.301V13.3104C4.55577 13.315 4.52759 13.3197 4.5041 13.3244C4.32563 13.3526 4.13306 13.3667 3.94989 13.3479H3.9452C3.92171 13.3479 3.90293 13.3432 3.87944 13.3432C3.87475 13.3432 3.87005 13.3432 3.86535 13.3432C3.67749 13.3197 3.48962 13.2728 3.31115 13.2023C3.22661 13.1695 3.14676 13.1319 3.06692 13.0896C3.02465 13.0614 2.98238 13.0379 2.94011 13.0192C2.91663 13.0051 2.89314 12.991 2.86966 12.9722C2.85087 12.9581 2.83209 12.9487 2.818 12.9346C2.818 12.9346 2.818 12.9346 2.8133 12.9346C2.76633 12.897 2.72406 12.8642 2.6771 12.8266C1.23991 11.6289 1.78473 9.08335 3.63991 8.67943C3.63052 8.66534 3.236 8.76867 3.17964 8.78276C3.33463 8.74049 3.48962 8.71231 3.63991 8.67943C3.64461 8.68413 2.60195 8.90487 3.63991 8.67943ZM2.36242 13.7518C2.52211 13.8599 2.83678 14.09 3.03404 14.09C3.31584 14.1933 3.63052 14.2638 3.93111 14.2779C4.0814 14.2873 4.25987 14.3013 4.41017 14.2685C4.52289 14.198 4.57925 14.1933 4.57925 14.2497C4.6544 14.7334 4.83757 15.3205 5.16633 15.6963C5.31193 15.8982 5.47631 16.0814 5.66418 16.2458L5.66888 16.2505C5.19921 16.5417 4.30684 17.3119 4.30684 17.9319C4.19882 17.9601 4.0814 17.9835 3.96868 17.9929C3.95929 17.9929 3.94989 17.9929 3.9405 17.9976C1.6861 18.2043 0.629346 15.1139 2.36242 13.7518C2.36712 13.7565 2.15107 13.9773 2.11819 13.9538C2.11819 13.9538 2.43287 13.7002 2.36242 13.7518C2.44226 13.8035 1.79882 14.198 2.36242 13.7518ZM3.19843 22.7178C2.01017 22.7178 1.09901 21.7738 0.958114 20.6231C0.89236 20.083 0.995687 19.5241 1.28218 19.0591C1.3996 18.8665 1.61565 18.5237 1.83639 18.4485C2.09471 18.3593 2.57377 18.6974 2.87905 18.8008C3.21721 18.8994 3.58825 18.9511 3.9405 18.9182C4.00156 18.9135 4.05792 18.9088 4.11897 18.9041C4.09549 19.3033 4.14715 19.7354 4.28336 20.1111C4.33502 20.2755 4.39608 20.454 4.48532 20.5996C4.60743 20.8391 4.76242 21.0927 4.95498 21.2853C5.18982 21.5577 5.218 21.5436 4.98316 21.8442C4.84696 22.018 4.69197 22.1683 4.51349 22.2951C4.12837 22.5722 3.66809 22.7178 3.19843 22.7178ZM9.5859 19.4677C9.5859 19.4724 9.5859 19.4724 9.5859 19.4677C9.29471 21.2477 7.10606 22.0556 5.78629 20.7968C5.19451 20.2286 4.84696 19.3925 5.06301 18.58C5.26966 17.8145 5.89901 16.9033 6.7585 16.7765C7.1859 16.6638 8.05009 16.6262 8.39764 16.9738C8.39764 16.9738 8.39764 16.9738 8.40234 16.9738C9.28531 17.4575 9.74089 18.5565 9.5906 19.4348C9.59529 19.3925 9.5953 19.4019 9.5859 19.4677C9.5859 19.4724 9.60469 19.3409 9.5859 19.4677ZM11.3331 19.416C11.0607 19.416 10.7882 19.3644 10.5346 19.2657C10.544 19.1389 10.5487 18.9933 10.5346 18.8665C10.5252 18.7303 10.5064 18.5941 10.483 18.4579C10.4783 18.4297 10.4736 18.4015 10.4642 18.3734C10.4642 18.3734 10.4642 18.3734 10.4642 18.3687C10.4595 18.3452 10.4548 18.317 10.4454 18.2935C10.4454 18.2888 10.4454 18.2888 10.4454 18.2888C10.328 17.8567 10.0931 17.1194 9.69392 16.8516C9.67514 16.8282 9.65635 16.8094 9.63757 16.7906C9.62817 16.7812 9.61878 16.7671 9.60939 16.7577C9.46849 16.6074 9.3088 16.4759 9.14441 16.3585C9.14441 16.3538 9.14911 16.3491 9.14911 16.3444C9.15381 16.3303 9.1585 16.3162 9.1632 16.3021C9.20547 16.1612 9.27122 16.0109 9.34637 15.8794C9.4497 15.6822 9.5859 15.499 9.74559 15.344C9.75968 15.3299 9.76907 15.3205 9.78316 15.3064C9.79725 15.2923 9.80665 15.283 9.82074 15.2736C9.83013 15.2642 9.83952 15.2548 9.85361 15.2454C9.85831 15.2407 9.86301 15.236 9.8724 15.2313C9.88179 15.2219 9.89588 15.2125 9.90528 15.2031C10.0039 15.1139 10.1213 15.0387 10.2387 14.973C10.746 15.2923 11.319 15.452 11.9201 15.452C11.9201 15.4567 11.9201 15.4661 11.9201 15.4708C11.892 15.9405 11.9577 16.4102 12.1174 16.8516C12.2066 17.0959 12.4509 17.744 12.7092 17.8755C12.7139 17.8849 12.7233 17.8943 12.7327 17.899C12.7468 17.9178 12.7609 17.9319 12.7749 17.946C12.8689 18.0493 12.9675 18.1479 13.0755 18.2372C13.2775 18.3076 13.2916 18.4015 13.1272 18.5237C13.0567 18.6974 12.7984 18.8712 12.6528 18.9792C12.263 19.261 11.8074 19.416 11.3331 19.416ZM15.1139 18.0775C13.6861 18.0775 12.6387 16.6826 12.8548 15.3111C13.2728 15.1796 13.8035 14.9354 14.0806 14.5831C14.1135 14.5503 14.1464 14.5221 14.1746 14.4892C14.1792 14.4845 14.1839 14.4798 14.1886 14.4751C14.2309 14.4329 14.2732 14.3859 14.3108 14.3389C14.3248 14.3248 14.3342 14.3107 14.3483 14.2967C14.353 14.292 14.3577 14.2873 14.3624 14.2779C14.4329 14.1933 14.5268 14.0806 14.5785 13.982C14.6959 13.7988 14.8039 13.6015 14.8791 13.3996C14.8837 13.3855 14.8884 13.3761 14.8931 13.362C16.2035 13.2352 17.3495 14.3436 17.3965 15.6305C17.4434 16.8939 16.4149 18.0775 15.1139 18.0775Z" fill="black"/>
		<path d="M20.4446 6.74915C20.191 6.74915 19.9844 6.5425 19.9844 6.28888C19.9844 6.03527 20.191 5.82861 20.4446 5.82861C20.6983 5.82861 20.9049 6.03527 20.9049 6.28888C20.9049 6.5425 20.6983 6.74915 20.4446 6.74915Z" fill="black"/>
		<path d="M23.8027 7.83875C23.3894 6.13856 22.1542 4.68729 20.1252 3.51782C20.4164 3.07633 21.9241 0.187874 20.8532 0.00939999C20.2004 -0.0986235 20.2051 1.03797 20.083 1.43719C19.8763 2.11821 19.571 2.77104 19.1296 3.33464C18.2748 4.45715 16.8517 5.0912 15.4568 5.0912C15.0622 5.06772 14.8227 5.56556 15.0857 5.86145C15.2689 6.06341 15.5789 6.02114 15.8278 6.00705C16.7296 5.95069 17.636 5.66419 18.4063 5.19453C17.5186 8.49159 19.7025 10.9573 22.3045 12.6247C22.3092 12.6294 22.3139 12.6294 22.3186 12.6341C22.3937 12.681 22.5018 12.7045 22.591 12.6951C22.5957 12.6951 22.6051 12.6951 22.6145 12.6904C22.6333 12.6904 22.6474 12.6857 22.6661 12.681C22.6943 12.6763 22.7225 12.6622 22.7507 12.6528C22.7554 12.6528 22.7554 12.6481 22.7601 12.6481C22.7648 12.6481 22.7648 12.6435 22.7695 12.6435C22.8352 12.6106 22.8916 12.5636 22.9339 12.5026C22.9339 12.5026 22.9386 12.4979 22.9386 12.4932C22.9902 12.4086 24.4086 10.3327 23.8027 7.83875C23.3894 6.13856 24.4086 10.3327 23.8027 7.83875ZM22.6521 11.0043C22.4078 10.22 22.1589 9.43562 21.8912 8.65598C21.7644 8.28024 21.6047 7.36439 21.1115 7.30803C20.3084 7.21879 20.7452 8.17691 20.8767 8.54325C21.1773 9.37926 21.4403 10.2341 21.708 11.0795C20.6701 10.2763 19.6791 9.26654 19.2845 7.98435C18.8994 6.74443 19.2094 5.49511 19.6744 4.32564C22.1166 5.73464 23.7652 8.13934 22.6521 11.0043C22.2669 9.77848 22.6521 11.0043 22.6521 11.0043Z" fill="black"/>
	</symbol>
	<symbol id="nut">
		<path d="M21.8897 5.77338C21.7746 5.60552 21.5396 5.56715 21.3765 5.68225C21.2086 5.79736 21.1703 6.03237 21.2854 6.19544C22.5707 8.02278 23.2518 10.1235 23.2518 12.277C23.2518 15.0635 22.1055 17.759 20.0192 19.8741C18.446 21.4664 16.4221 22.6559 14.1679 23.3321C13.717 22.9676 13.4436 22.2434 13.3189 21.0492C13.7794 21.476 14.3933 21.7398 15.0647 21.7398C15.8465 21.7398 16.5803 21.3849 17.0647 20.7806C17.1271 20.7854 17.1894 20.7854 17.2518 20.7854C18.6667 20.7854 19.8225 19.6343 19.8225 18.2146C19.8225 17.9988 19.7986 17.7926 19.7458 17.5863C20.4221 17.3082 21.0216 16.8477 21.4628 16.2626C22 15.5528 22.283 14.7038 22.283 13.8118C22.283 12.9245 21.9952 12.0659 21.4676 11.3609C21.9808 10.8813 22.2782 10.205 22.2782 9.48561C22.2782 8.22902 21.3861 7.18345 20.187 6.96283C20.1583 5.82134 19.3861 4.84772 18.3022 4.55036C17.9472 3.28417 16.7866 2.39209 15.4532 2.39209C14.7962 2.39209 14.1871 2.60791 13.6978 2.97242C13.9712 2.32494 14.3453 1.77818 14.7962 1.41847C16.9784 2.18106 18.9113 3.43285 20.3933 5.07314C20.5324 5.22662 20.7626 5.23621 20.9161 5.10192C21.0695 4.96763 21.0791 4.73261 20.9448 4.57914C18.7242 2.1283 15.5635 0.497602 12.048 0.00359712C12.0144 -0.00119904 11.9808 -0.00119904 11.9424 0.00359712C8.65228 0.468825 5.63549 1.94604 3.44844 4.16187C1.22302 6.41607 0 9.29856 0 12.277C0 15.2554 1.22302 18.1379 3.44844 20.3921C5.63549 22.6079 8.65228 24.0851 11.9472 24.5504C11.9664 24.5552 11.9808 24.5552 12 24.5552C12.0192 24.5552 12.0336 24.5552 12.0528 24.5504C15.3429 24.0851 18.3597 22.6079 20.5516 20.3921C22.7722 18.1379 24 15.2554 24 12.277C23.9904 9.97482 23.2662 7.72542 21.8897 5.77338ZM15.4532 3.13549C16.518 3.13549 17.4341 3.89329 17.6307 4.93405C17.6595 5.08273 17.7794 5.20264 17.9281 5.22662C18.7722 5.3753 19.3957 6.08034 19.4388 6.93405C18.8537 6.99161 18.307 7.2506 17.8849 7.67266C17.741 7.81655 17.741 8.05156 17.8849 8.19544C17.9568 8.26739 18.0528 8.30576 18.1439 8.30576C18.2398 8.30576 18.3309 8.26739 18.4029 8.19544C18.7482 7.85012 19.2086 7.65827 19.6978 7.65827C19.7074 7.65827 19.717 7.65827 19.7218 7.65348C19.741 7.65827 19.7554 7.65827 19.7746 7.65827C20.7578 7.70144 21.5252 8.5024 21.5252 9.48561C21.5252 9.99401 21.3141 10.4688 20.9544 10.8141C20.211 10.1187 19.2326 9.73501 18.2014 9.73501C17.9952 9.73501 17.8321 9.89808 17.8321 10.1043C17.8321 10.3106 17.9952 10.4736 18.2014 10.4736C19.0935 10.4736 19.9329 10.8189 20.5659 11.452C20.5851 11.4712 20.6043 11.4856 20.6235 11.5C20.6379 11.524 20.6523 11.5432 20.6667 11.5624C21.2326 12.1811 21.5396 12.9772 21.5396 13.8165C21.5396 14.5456 21.3094 15.241 20.8681 15.8261C20.5036 16.3058 20.0096 16.6847 19.458 16.9101C18.9976 16.1379 18.1679 15.6535 17.247 15.6535C16.5612 15.6535 15.9137 15.9221 15.4293 16.4065C15.2854 16.5504 15.2854 16.7854 15.4293 16.9293C15.5731 17.0731 15.8082 17.0731 15.952 16.9293C16.2974 16.5839 16.7578 16.3921 17.247 16.3921C17.9856 16.3921 18.6475 16.8285 18.9353 17.5096C19.0312 17.735 19.0791 17.9748 19.0791 18.2194C19.0791 19.1499 18.3837 19.9173 17.482 20.0324C17.5779 19.759 17.6307 19.4664 17.6307 19.1691C17.6307 18.9628 17.4676 18.7998 17.2614 18.7998C17.0552 18.7998 16.8921 18.9628 16.8921 19.1691C16.8921 19.5336 16.7866 19.8837 16.5851 20.1811C16.2446 20.6894 15.6739 20.9964 15.0647 20.9964C14.0576 20.9964 13.2326 20.1763 13.2326 19.1643C13.2326 18.6559 13.4388 18.1811 13.8082 17.8309C13.9472 17.7014 13.9616 17.4856 13.8465 17.3369C13.4436 16.8237 13.2326 16.205 13.2326 15.5528C13.2326 14.6511 13.6403 13.8165 14.3501 13.2602C14.3549 13.2554 14.3549 13.2554 14.3597 13.2506C14.8729 12.8525 15.4868 12.6415 16.1391 12.6415C16.3453 12.6415 16.5084 12.4784 16.5084 12.2722C16.5084 12.0659 16.3453 11.9029 16.1391 11.9029C15.4245 11.9029 14.7482 12.1043 14.1583 12.488C13.5731 11.8597 13.2374 11.0204 13.2374 10.1475C13.2374 9.23621 13.5923 8.38249 14.2302 7.73501C14.2302 7.73501 14.2302 7.73022 14.235 7.73022C14.8825 7.07794 15.7506 6.71343 16.6715 6.71343C16.8777 6.71343 17.0408 6.55036 17.0408 6.34413C17.0408 6.13789 16.8777 5.97482 16.6715 5.97482C15.6595 5.97482 14.7098 6.32974 13.952 6.98201C13.5012 6.56475 13.2374 5.97482 13.2374 5.35132C13.2374 4.13309 14.2302 3.13549 15.4532 3.13549ZM0.738609 12.277C0.738609 9.49041 1.88489 6.79496 3.97122 4.67986C5.39568 3.23621 7.19424 2.1235 9.19424 1.42326C9.64508 1.78297 10.024 2.32494 10.2926 2.97242C9.80336 2.61271 9.19424 2.39688 8.53717 2.39688C7.20384 2.39688 6.04317 3.28897 5.68825 4.55516C4.60432 4.85252 3.83213 5.82614 3.80336 6.96763C2.60432 7.19305 1.71223 8.23861 1.71223 9.49041C1.71223 10.205 2.00959 10.8813 2.52278 11.3657C1.9952 12.0707 1.70743 12.9245 1.70743 13.8165C1.70743 13.9029 1.71223 13.994 1.71703 14.0803C1.73141 14.2818 1.90887 14.44 2.11031 14.4257C2.31175 14.4113 2.47002 14.2386 2.45564 14.0324C2.45084 13.9604 2.45084 13.8885 2.45084 13.8165C2.45084 12.982 2.76259 12.1811 3.32374 11.5624C3.34293 11.5432 3.35731 11.524 3.36691 11.5C3.38609 11.4856 3.40528 11.4712 3.42446 11.452C4.05755 10.8189 4.89688 10.4736 5.78897 10.4736C5.9952 10.4736 6.15827 10.3106 6.15827 10.1043C6.15827 9.89808 5.9952 9.73501 5.78897 9.73501C4.753 9.73501 3.77938 10.1187 3.02158 10.8189C2.66187 10.4784 2.45084 9.9988 2.45084 9.49041C2.45084 8.50719 3.21823 7.70624 4.20144 7.66307C4.22062 7.66307 4.23501 7.65827 4.2542 7.65827C4.26379 7.66307 4.27338 7.66307 4.27818 7.66307C4.76739 7.66307 5.22782 7.85492 5.57314 8.20024C5.64508 8.27218 5.74101 8.31055 5.83213 8.31055C5.92806 8.31055 6.01918 8.27218 6.09113 8.20024C6.23501 8.05636 6.23501 7.82134 6.09113 7.67746C5.66906 7.2554 5.1223 6.9964 4.53717 6.93885C4.58034 6.08993 5.20384 5.3801 6.04796 5.23141C6.20144 5.20743 6.31655 5.08753 6.34532 4.93885C6.54676 3.89808 7.46283 3.14029 8.52278 3.14029C9.7458 3.14029 10.7434 4.13789 10.7434 5.36091C10.7434 5.98441 10.4796 6.56954 10.0288 6.99161C9.27098 6.33933 8.32134 5.98441 7.30935 5.98441C7.10312 5.98441 6.94005 6.14748 6.94005 6.35372C6.94005 6.55995 7.10312 6.72302 7.30935 6.72302C8.23022 6.72302 9.09832 7.08273 9.7458 7.73981C9.7458 7.73981 9.7458 7.7446 9.7506 7.7446C10.3933 8.39209 10.7434 9.2506 10.7434 10.1571C10.7434 11.03 10.4077 11.8693 9.81295 12.5024C9.22302 12.1187 8.54676 11.9173 7.83213 11.9173C7.6259 11.9173 7.46283 12.0803 7.46283 12.2866C7.46283 12.4928 7.6259 12.6559 7.83213 12.6559C8.48441 12.6559 9.09832 12.8669 9.61151 13.265C9.61631 13.2698 9.61631 13.2698 9.6211 13.2746C10.3309 13.8309 10.7386 14.6655 10.7386 15.5671C10.7386 16.2194 10.5276 16.8381 10.1247 17.3513C10.0096 17.5 10.024 17.7158 10.1631 17.8453C10.5324 18.1954 10.7386 18.6703 10.7386 19.1787C10.7386 20.1859 9.91846 21.0108 8.90647 21.0108C8.29257 21.0108 7.72662 20.7038 7.38609 20.1954C7.18465 19.8933 7.07914 19.5432 7.07914 19.1835C7.07914 18.9772 6.91607 18.8141 6.70983 18.8141C6.5036 18.8141 6.34053 18.9772 6.34053 19.1835C6.34053 19.4808 6.39329 19.7734 6.48921 20.0468C5.59233 19.9317 4.89209 19.1643 4.89209 18.2338C4.89209 17.9892 4.94005 17.7494 5.03597 17.524C5.32374 16.8429 5.98561 16.4065 6.72422 16.4065C7.21343 16.4065 7.67386 16.5983 8.01918 16.9436C8.16307 17.0875 8.39808 17.0875 8.54197 16.9436C8.68585 16.7998 8.68585 16.5647 8.54197 16.4209C8.05755 15.9365 7.41007 15.6679 6.72422 15.6679C5.80815 15.6679 4.97362 16.1523 4.51319 16.9245C3.7554 16.6127 3.1271 16.0324 2.76259 15.2842C2.67146 15.1019 2.45084 15.0252 2.26858 15.1115C2.08633 15.2026 2.00959 15.4233 2.09592 15.6055C2.53717 16.512 3.29976 17.2266 4.22542 17.6055C4.17266 17.8118 4.14868 18.018 4.14868 18.2338C4.14868 19.6487 5.29976 20.8046 6.71942 20.8046C6.78177 20.8046 6.84412 20.8046 6.90647 20.7998C7.39089 21.4041 8.1247 21.759 8.90647 21.759C9.58273 21.759 10.1966 21.4952 10.6523 21.0683C10.5276 22.2626 10.2542 22.982 9.80336 23.3513C7.54916 22.6751 5.52518 21.4856 3.95204 19.8933C1.88969 17.759 0.738609 15.0635 0.738609 12.277ZM11.9952 23.8118C11.5348 23.7446 11.0839 23.6583 10.6379 23.5528C11.2422 22.7758 11.4964 21.4233 11.4964 19.1691C11.4964 18.5743 11.2854 17.994 10.9113 17.5384C11.295 16.9484 11.4964 16.2674 11.4964 15.5576C11.4964 14.5695 11.1031 13.6391 10.4077 12.958C11.1031 12.1954 11.4964 11.1882 11.4964 10.1475C11.4964 9.17866 11.1655 8.25779 10.5612 7.51439C11.1511 6.95803 11.4964 6.17626 11.4964 5.35611C11.4964 4.42566 11.3141 3.5048 10.9736 2.68465C10.7194 2.08034 10.3933 1.56715 10.0096 1.16906C10.6571 0.982014 11.3237 0.842926 12 0.742206C12.6811 0.842926 13.3429 0.982014 13.9904 1.16906C13.6067 1.56715 13.2758 2.08513 13.0264 2.68465C12.6859 3.5048 12.5036 4.42566 12.5036 5.35611C12.5036 6.17626 12.8489 6.95803 13.4388 7.51439C12.8345 8.25779 12.5036 9.17866 12.5036 10.1475C12.5036 11.1882 12.8969 12.1954 13.5923 12.958C12.8969 13.6391 12.5036 14.5695 12.5036 15.5576C12.5036 16.2722 12.705 16.9484 13.0887 17.5384C12.7146 17.994 12.5036 18.5743 12.5036 19.1691C12.5036 21.4185 12.7578 22.771 13.3621 23.5528C12.9065 23.6583 12.4556 23.7446 11.9952 23.8118Z" fill="black"/>
	</symbol>
	<symbol id="almond" >
		<path d="M11.268 19.194C11.0196 19.119 10.7571 19.2597 10.6868 19.5081C10.0634 21.5986 8.09948 23.061 5.91524 23.061C3.16855 23.0563 0.937439 20.8252 0.937439 18.0832C0.937439 14.4037 2.23111 10.818 4.58408 7.98695L5.37621 7.03545C5.50746 6.87608 5.70432 6.78234 5.91056 6.78234C6.11679 6.78234 6.31365 6.87608 6.4449 7.03545L7.23703 7.98695C9.03223 10.1477 10.2228 12.7538 10.6774 15.524C10.7196 15.7771 10.9587 15.9505 11.2165 15.9083C11.4696 15.8661 11.643 15.6271 11.6008 15.3693C11.118 12.4351 9.85718 9.67434 7.95886 7.38699L7.17141 6.4308C6.86206 6.05582 6.40271 5.84021 5.91524 5.84021C5.42777 5.84021 4.96843 6.05582 4.65907 6.4308L3.86694 7.3823C1.37335 10.3821 0 14.1834 0 18.0832C0 21.3455 2.65295 23.9984 5.91524 23.9984C7.2136 23.9984 8.44633 23.5859 9.4822 22.8032C10.4806 22.0485 11.2305 20.9705 11.5868 19.7799C11.6571 19.5268 11.5164 19.2643 11.268 19.194Z" fill="black"/>
		<path d="M5.69025 11.8539C5.46058 11.9758 5.37621 12.2617 5.49808 12.4867C6.27146 13.9257 6.74487 15.5474 6.87143 17.1739C6.89017 17.4176 7.09641 17.6051 7.34015 17.6051C7.35421 17.6051 7.36358 17.6051 7.37764 17.6051C7.63544 17.5864 7.82761 17.3614 7.80886 17.1036C7.67294 15.3224 7.17141 13.621 6.32771 12.0461C6.20584 11.8164 5.91992 11.732 5.69025 11.8539Z" fill="black"/>
		<path d="M5.91524 20.0144C6.17304 20.0144 6.38396 19.8035 6.38396 19.5457C6.38396 19.2879 6.17304 19.077 5.91524 19.077C5.36684 19.077 4.91687 18.6317 4.91687 18.0786C4.91687 17.4927 4.95906 16.9021 5.04811 16.3256C5.08561 16.0678 4.91218 15.8287 4.65439 15.7912C4.39659 15.7537 4.15754 15.9272 4.12005 16.1849C4.0263 16.8083 3.97943 17.4458 3.97943 18.0786C3.97943 19.1473 4.84656 20.0144 5.91524 20.0144Z" fill="black"/>
		<path d="M5.91525 22.0064C8.08074 22.0064 9.83844 20.244 9.83844 18.0832C9.83844 17.8254 9.62751 17.6145 9.36972 17.6145C9.11192 17.6145 8.901 17.8254 8.901 18.0832C8.901 19.7284 7.56046 21.069 5.91525 21.069C5.65746 21.069 5.44653 21.2799 5.44653 21.5377C5.44653 21.7955 5.65746 22.0064 5.91525 22.0064Z" fill="black"/>
		<path d="M8.97128 15.2053C9.00878 15.2053 9.04628 15.2006 9.08377 15.1912C9.33688 15.1303 9.49156 14.8772 9.43063 14.6241C9.10721 13.2835 8.59631 11.9946 7.91666 10.7946C7.79011 10.5697 7.50419 10.49 7.2792 10.6165C7.05422 10.7431 6.97454 11.029 7.10109 11.254C7.73855 12.3789 8.21664 13.5835 8.52131 14.8397C8.56818 15.06 8.76036 15.2053 8.97128 15.2053Z" fill="black"/>
		<path d="M4.11068 11.4039C3.87632 11.2914 3.59977 11.3851 3.48259 11.6195C2.50766 13.6256 1.99207 15.8567 1.99207 18.0785C1.99207 18.3363 2.20299 18.5472 2.46079 18.5472C2.71858 18.5472 2.9295 18.3363 2.9295 18.0785C2.9295 15.9973 3.41229 13.9069 4.32629 12.032C4.43878 11.7976 4.34035 11.5211 4.11068 11.4039Z" fill="black"/>
		<path d="M23.9938 13.2601L23.8813 12.0273C23.525 8.14635 21.8095 4.49033 19.0534 1.72958C16.7473 -0.576525 12.9976 -0.576525 10.6915 1.72958C8.38539 4.03568 8.38539 7.78543 10.6915 10.0915C13.4476 12.8476 17.1036 14.5631 20.9893 14.924L22.222 15.0365C22.2736 15.0412 22.3251 15.0412 22.372 15.0412C22.8032 15.0412 23.2157 14.8725 23.525 14.5631C23.8625 14.221 24.0359 13.7429 23.9938 13.2601ZM22.8548 13.9022C22.7095 14.0475 22.5032 14.1225 22.297 14.1038L21.0643 13.9913C17.3989 13.6538 13.9491 12.032 11.3477 9.43064C9.4072 7.49014 9.4072 4.33097 11.3477 2.39047C12.2898 1.44834 13.5366 0.932752 14.8678 0.932752C16.1989 0.932752 17.4457 1.44834 18.3879 2.39047C20.9893 4.99187 22.611 8.44633 22.9485 12.107L23.061 13.3398C23.0751 13.5507 23.0048 13.7569 22.8548 13.9022Z" fill="black"/>
		<path d="M14.8631 4.91686C15.1303 4.91686 15.3787 5.01998 15.5662 5.20746C15.9787 5.61994 16.3677 6.06991 16.7146 6.53863C16.8083 6.66518 16.9489 6.7308 17.0942 6.7308C17.1927 6.7308 17.2864 6.70268 17.3708 6.63706C17.577 6.48238 17.6239 6.19178 17.4692 5.98085C17.0942 5.46995 16.6771 4.98717 16.2318 4.54188C15.8662 4.17628 15.3834 3.97473 14.8631 3.97473C14.3475 3.97473 13.8601 4.17628 13.4945 4.54188C13.3117 4.72468 13.3117 5.01998 13.4945 5.20278C13.6773 5.38558 13.9726 5.38558 14.1554 5.20278C14.3475 5.01998 14.6006 4.91686 14.8631 4.91686Z" fill="black"/>
		<path d="M19.1144 9.57599C17.5489 9.10258 16.0677 8.2917 14.8256 7.23239C14.6287 7.06365 14.3334 7.08709 14.1647 7.28395C13.996 7.48081 14.0194 7.7761 14.2163 7.94484C15.5709 9.10727 17.127 9.95565 18.8425 10.4759C18.8894 10.49 18.9316 10.4947 18.9785 10.4947C19.18 10.4947 19.3675 10.3634 19.4284 10.1619C19.4987 9.90878 19.3581 9.65098 19.1144 9.57599Z" fill="black"/>
		<path d="M17.6379 3.13576C17.4551 2.95296 17.1598 2.95296 16.977 3.13576C16.7942 3.31856 16.7942 3.61385 16.977 3.79665C18.4488 5.26843 19.5831 7.08706 20.2674 9.06037C20.333 9.25255 20.5158 9.37442 20.7127 9.37442C20.7643 9.37442 20.8158 9.36504 20.8674 9.34629C21.1111 9.26192 21.2424 8.99475 21.158 8.75102C20.4268 6.65116 19.2128 4.70597 17.6379 3.13576Z" fill="black"/>
		<path d="M18.8566 11.5726C17.6098 11.2305 16.4193 10.7149 15.3178 10.0399C15.0975 9.90401 14.8069 9.97431 14.6756 10.1946C14.5397 10.4149 14.61 10.7055 14.8303 10.8368C16.0068 11.5586 17.2817 12.107 18.6082 12.4726C18.6504 12.482 18.6925 12.4913 18.7347 12.4913C18.941 12.4913 19.1285 12.3554 19.1847 12.1492C19.2503 11.8961 19.105 11.6383 18.8566 11.5726Z" fill="black"/>
		<path d="M12.7539 3.13576C12.5711 2.95296 12.2758 2.95296 12.093 3.13576C10.565 4.66378 10.565 7.15737 12.093 8.6854C12.1867 8.77914 12.3039 8.82133 12.4258 8.82133C12.5476 8.82133 12.6648 8.77446 12.7586 8.6854C12.9414 8.5026 12.9414 8.2073 12.7586 8.0245C11.5961 6.86208 11.5961 4.96376 12.7586 3.80134C12.9367 3.61854 12.9367 3.31856 12.7539 3.13576Z" fill="black"/>
		<path d="M11.3524 17.0754C11.2305 17.0754 11.1087 17.127 11.0196 17.2114C10.9305 17.3004 10.8837 17.4176 10.8837 17.5442C10.8837 17.666 10.9352 17.7879 11.0196 17.877C11.1087 17.966 11.2258 18.0129 11.3524 18.0129C11.4789 18.0129 11.5961 17.9613 11.6852 17.877C11.7742 17.7879 11.8211 17.6707 11.8211 17.5442C11.8211 17.4176 11.7695 17.3004 11.6852 17.2114C11.5961 17.1223 11.4743 17.0754 11.3524 17.0754Z" fill="black"/>
	</symbol>
	<symbol id="powder">	
		<path d="M30.525 8.01875H26.0563C25.7938 8.01875 25.5875 8.23125 25.5875 8.4875C25.5875 8.75 25.8 8.95625 26.0563 8.95625H30.525C30.8188 8.95625 31.0563 9.19375 31.0563 9.4875V9.64375C31.0563 9.90625 30.8688 10.125 30.6125 10.1687L16.4188 12.5312C16.1938 12.5688 16.025 12.7625 16.025 12.9937V15.5C16.025 17.45 14.4375 19.0375 12.4875 19.0375H4.46875C2.51875 19.0375 0.93125 17.45 0.93125 15.5V8.95625H23.7438C24.0063 8.95625 24.2125 8.74375 24.2125 8.4875C24.2125 8.225 24 8.01875 23.7438 8.01875H16.8063C16.5375 7.375 15.8375 5.80625 14.7438 4.2125C12.8563 1.45625 10.6875 0 8.48125 0C6.275 0 4.1 1.45625 2.20625 4.2125C0.8125 6.2375 0.05625 8.2375 0.025 8.31875V8.325C0.01875 8.3375 0.01875 8.35 0.0125 8.3625C0.0125 8.36875 0.0125 8.36875 0.00625 8.375C0 8.3875 0 8.4 0 8.41875C0 8.425 0 8.425 0 8.43125C0 8.45 0 8.46875 0 8.48125V15.5C0 17.9688 2.00625 19.975 4.475 19.975H12.4938C14.9625 19.975 16.9688 17.9688 16.9688 15.5V13.3938L30.7688 11.0938C31.4813 10.975 32 10.3625 32 9.64375V9.4875C31.9938 8.675 31.3313 8.01875 30.525 8.01875ZM8.48125 0.9375C12.3125 0.9375 14.9688 6.16875 15.7938 8.0125H1.16875C1.9875 6.16875 4.64375 0.9375 8.48125 0.9375Z" fill="black"/>
	</symbol>
	<symbol id="apitherapy">
		<path d="M0.18761 21.5505C3.66777 23.7268 3.43795 23.6142 3.60211 23.6142C3.76627 23.6142 3.5599 23.708 6.80555 21.6865C10.0559 23.7174 9.84952 23.6142 10.009 23.6142C10.1685 23.6142 10.009 23.6846 12.6261 22.0477C12.8138 21.9304 12.87 21.6818 12.7528 21.4942C12.6355 21.3066 12.3869 21.2503 12.1993 21.3676L10.0043 22.7418L7.20422 20.9924V18.2345L8.66758 17.3199C8.85519 17.2027 8.91147 16.9541 8.79422 16.7665C8.67696 16.5789 8.42838 16.5226 8.24077 16.6398L6.80555 17.5404L4.00547 15.7909V13.033L6.80555 11.2836C8.3674 12.2591 8.26422 12.2122 8.37678 12.231C8.56439 12.2638 8.752 12.1653 8.82236 11.9871C8.89271 11.8089 8.82705 11.6072 8.66758 11.504L7.20422 10.5894V7.83154L10.0043 6.08208L12.8044 7.83154V8.40844C12.8044 8.62888 12.9826 8.80711 13.203 8.80711C13.4235 8.80711 13.6017 8.62888 13.6017 8.40844V7.83154L16.4018 6.08208L19.2019 7.83154V10.8098C19.2019 11.0303 19.3801 11.2085 19.6005 11.2085C19.821 11.2085 19.9992 11.0303 19.9992 10.8098V7.60641C19.9992 7.47039 19.9289 7.33907 19.8116 7.26871L16.7958 5.38323V2.40023C16.7958 2.26422 16.7254 2.13289 16.6082 2.06254L13.4188 0.0598007C13.2875 -0.0199336 13.1233 -0.0199336 12.9967 0.0598007L10.009 1.92652L7.01661 0.0598007C6.88528 -0.0199336 6.72113 -0.0199336 6.59449 0.0598007L3.39105 2.06254C3.27379 2.13758 3.20344 2.26422 3.20344 2.40023V5.37854L0.18761 7.26402C0.0703537 7.33907 0 7.4657 0 7.60172V10.8052C0 10.9412 0.0703537 11.0725 0.18761 11.1429L3.20344 13.0283V15.7862L0.18761 17.6717C0.0703537 17.7467 0 17.8734 0 18.0094V21.2128C0 21.3488 0.0703537 21.4755 0.18761 21.5505ZM13.2077 0.871214L16.0078 2.62068V5.37854L13.2077 7.12801L10.4077 5.37854V2.62068L13.2077 0.871214ZM6.80555 0.871214L9.60563 2.62068V5.37854L6.80555 7.12801L4.00547 5.37854V2.62068L6.80555 0.871214ZM0.802032 7.82685L3.60211 6.07739L6.40219 7.82685V10.5847L3.60211 12.3342L0.802032 10.5847V7.82685ZM0.802032 18.2298L3.60211 16.4804L6.40219 18.2298V20.9877L3.60211 22.7372L0.802032 20.9877V18.2298Z" fill="black"/>
		<path d="M18.4092 12.0105V11.6072C18.4092 10.9083 18.0997 10.2423 17.5697 9.78265L17.9684 8.98062C18.0668 8.78363 17.9824 8.54443 17.7854 8.44593C17.5884 8.34744 17.3492 8.42717 17.2507 8.62416L16.8802 9.36991C16.3221 9.14947 15.6983 9.14947 15.1354 9.36991L14.7649 8.62416C14.7039 8.49283 14.5726 8.40841 14.4319 8.39903C14.2865 8.38965 14.1505 8.46 14.0708 8.57726C13.991 8.6992 13.9816 8.84929 14.0473 8.98062L14.446 9.78265C13.9113 10.2376 13.6017 10.9036 13.6017 11.6072V12.0105C13.2359 12.0058 12.8419 12.0058 12.401 12.0058C10.2763 12.0058 7.99689 12.972 7.99689 14.4072C7.99689 16.1332 11.2472 17.0385 12.8654 16.7664C12.8278 17.0854 12.7997 17.5216 12.7997 17.8124C12.7997 20.6124 14.0004 22.8497 15.5998 23.1733V23.6189C15.5998 23.8393 15.778 24.0176 15.9985 24.0176C16.2189 24.0176 16.3971 23.8393 16.3971 23.6189V23.1686C17.9965 22.845 19.1972 20.6077 19.1972 17.8077C19.1972 17.5216 19.1691 17.0807 19.1315 16.7664C20.7684 17.0385 24 16.1239 24 14.4072C24 12.972 21.7252 12.0058 19.5959 12.0058C19.1925 12.0058 18.7845 12.0058 18.4092 12.0105ZM14.4085 11.6072C14.4085 10.7207 15.1261 10.0078 16.0078 10.0078C16.8943 10.0078 17.6072 10.7254 17.6072 11.6072V12.0293C17.0678 12.0199 16.5238 12.0996 16.0078 12.2591C15.4919 12.0903 14.9478 12.0152 14.4038 12.0293V11.6072H14.4085ZM16.0125 14.1587C16.2001 14.5339 16.43 14.8856 16.702 15.2046H15.3184C15.5857 14.8856 15.8202 14.5339 16.0125 14.1587ZM8.80361 14.4072C8.80361 13.6849 10.464 12.8079 12.4057 12.8079C13.2078 12.8079 15.0979 12.7938 15.5951 12.9533C15.4591 13.9148 14.0614 16.0113 12.4057 16.0113C10.4686 16.0066 8.80361 15.1295 8.80361 14.4072ZM14.4929 16.0066H17.5181C17.762 16.1989 18.0246 16.3631 18.3014 16.4991C18.3154 16.6023 18.3295 16.7055 18.3436 16.8086H15.6092C15.3887 16.8086 15.2105 16.9869 15.2105 17.2073C15.2105 17.4278 15.3887 17.606 15.6092 17.606H18.3999C18.4186 17.8733 18.4139 18.1407 18.3858 18.408H13.6299C13.6017 18.1407 13.597 17.8733 13.6158 17.606H14.0051C14.2255 17.606 14.4038 17.4278 14.4038 17.2073C14.4038 16.9869 14.2255 16.8086 14.0051 16.8086H13.6721C13.6862 16.7008 13.7002 16.5976 13.7143 16.4897C13.9957 16.3584 14.2537 16.1989 14.4929 16.0066ZM14.2068 20.8094H16.0078C16.2283 20.8094 16.4065 20.6312 16.4065 20.4108C16.4065 20.1903 16.2283 20.0121 16.0078 20.0121H13.9113C13.8362 19.7494 13.7753 19.4821 13.7284 19.21H18.292C18.2451 19.4821 18.1841 19.7494 18.1091 20.0121H17.6119C17.3915 20.0121 17.2132 20.1903 17.2132 20.4108C17.2132 20.6312 17.3915 20.8094 17.6119 20.8094H17.8136C16.838 22.9435 15.1823 22.9435 14.2068 20.8094ZM23.2121 14.4072C23.2121 15.4016 20.2384 16.4053 18.8126 15.8518C17.6213 15.289 16.7442 14.229 16.4206 12.9533C16.9975 12.7797 18.7282 12.8079 19.6099 12.8032C21.5517 12.8079 23.2121 13.6849 23.2121 14.4072Z" fill="black"/>
	</symbol>
	<symbol id="beans">
		<path d="M11.3672 3.05625C11.2031 2.85 10.9031 2.81719 10.6969 2.98125C10.4484 3.17813 10.1531 3.28594 9.83438 3.28594C9.51563 3.28594 9.22032 3.18282 8.97188 2.98125C8.76563 2.81719 8.46563 2.85 8.30157 3.05625C8.1375 3.2625 8.17032 3.5625 8.37657 3.72656C8.78907 4.05938 9.30938 4.2375 9.83907 4.2375C10.3688 4.2375 10.8891 4.05469 11.3016 3.72656C11.4984 3.5625 11.5313 3.2625 11.3672 3.05625Z" fill="black"/>
		<path d="M23.6531 9.80156C23.2687 8.74688 22.6031 7.84219 21.7265 7.18594C21.1031 6.72188 20.3953 6.40313 19.6312 6.23906C19.7953 4.73438 19.3265 3.17344 18.3468 1.9875C17.2875 0.707813 15.764 0 14.0578 0H13.7812C12.5859 0 11.4281 0.421875 10.4297 1.22344C10.2562 1.35938 10.05 1.43438 9.82966 1.43438C9.60935 1.43438 9.4031 1.35938 9.22966 1.22344C8.23591 0.421875 7.0781 0 5.88279 0H5.60623C4.37342 0 3.22029 0.375 2.27342 1.07813C1.39217 1.73438 0.726543 2.63438 0.346856 3.69375C-0.0328314 4.74375 -0.103144 5.85938 0.154668 6.91875C0.426543 8.0625 1.06873 9.07969 2.01092 9.86719C2.7281 10.4672 3.5156 10.9828 4.34998 11.4C4.31717 11.9484 4.36404 12.4922 4.4906 13.0266C4.76248 14.1703 5.40467 15.1875 6.34685 15.975C8.53591 17.8031 11.3156 18.8063 14.1703 18.8063C17.025 18.8063 19.8047 17.7984 21.9937 15.975C22.9359 15.1875 23.5781 14.1703 23.85 13.0266C24.1031 11.9672 24.0375 10.8516 23.6531 9.80156ZM4.49998 10.4016C3.83435 10.0453 3.20623 9.61875 2.62029 9.13125C0.792168 7.60781 0.712481 5.48906 1.24217 4.01719C1.77654 2.53594 3.20623 0.95625 5.60154 0.95625H5.8781C6.8531 0.95625 7.80466 1.30781 8.62966 1.96875C8.96716 2.24063 9.39373 2.39063 9.82498 2.39063C10.2562 2.39063 10.6828 2.24063 11.0203 1.96875C11.8453 1.30313 12.7968 0.95625 13.7718 0.95625H14.0484C15.464 0.95625 16.725 1.5375 17.6015 2.59688C18.4172 3.58125 18.8015 4.87031 18.675 6.1125C18.5812 6.10781 18.4828 6.10313 18.3843 6.10313H18.1078C16.9125 6.10313 15.7547 6.525 14.7562 7.32656C14.5828 7.4625 14.3765 7.5375 14.1562 7.5375C13.9359 7.5375 13.7297 7.4625 13.5562 7.32656C12.5578 6.525 11.4 6.10313 10.2047 6.10313H9.9281C8.69529 6.10313 7.54685 6.47813 6.59529 7.18125C5.71404 7.8375 5.04842 8.7375 4.66873 9.79688C4.60779 9.99844 4.54685 10.2 4.49998 10.4016ZM21.3797 15.2391C19.364 16.9219 16.8 17.85 14.1703 17.85C11.5406 17.85 8.97185 16.9219 6.95623 15.2391C5.1281 13.7156 5.04842 11.5969 5.5781 10.125C6.11248 8.64375 7.54216 7.06406 9.93748 7.06406H10.214C11.189 7.06406 12.1406 7.41563 12.9656 8.07656C13.3031 8.34844 13.7297 8.49844 14.1609 8.49844C14.5922 8.49844 15.0187 8.34844 15.3562 8.07656C16.1812 7.41094 17.1328 7.06406 18.1078 7.06406H18.3843C20.7797 7.06406 22.2093 8.64844 22.7437 10.125C23.2875 11.5969 23.2078 13.7156 21.3797 15.2391Z" fill="black"/>
		<path d="M15.6234 9.09849C15.4593 8.89224 15.1593 8.85943 14.9531 9.02349C14.7047 9.22037 14.4093 9.32818 14.0906 9.32818C13.7718 9.32818 13.4765 9.22505 13.2281 9.02349C13.0219 8.85943 12.7219 8.89224 12.5578 9.09849C12.3937 9.30474 12.4265 9.60474 12.6328 9.7688C13.0453 10.1016 13.5656 10.2797 14.0953 10.2797C14.625 10.2797 15.1453 10.0969 15.5578 9.7688C15.7593 9.60474 15.7922 9.30474 15.6234 9.09849Z" fill="black"/>
		<path d="M19.3171 15.4453C19.1953 15.2109 18.9093 15.1172 18.6749 15.239C17.2734 15.9562 15.7593 16.3219 14.1703 16.3219C13.9078 16.3219 13.6921 16.5375 13.6921 16.8C13.6921 17.0625 13.9078 17.2781 14.1703 17.2781C15.9093 17.2781 17.5734 16.8797 19.1109 16.0875C19.3453 15.9703 19.4343 15.6797 19.3171 15.4453Z" fill="black"/>
		<path d="M21.1688 14.0953C21 13.8937 20.7 13.8656 20.4938 14.0344C20.3813 14.1281 20.2688 14.2172 20.1563 14.3062C19.9453 14.4656 19.9078 14.7656 20.0672 14.9765C20.1609 15.0984 20.3016 15.164 20.4469 15.164C20.55 15.164 20.6484 15.1312 20.7375 15.0656C20.8641 14.9719 20.9859 14.8687 21.1078 14.7703C21.3094 14.5969 21.3375 14.2969 21.1688 14.0953Z" fill="black"/>
	</symbol>
	<symbol id="oat">
		<path d="M11.4701 14.3212C11.9297 15.0528 12.6565 15.4513 13.4349 15.4513C13.796 15.4513 14.1665 15.3669 14.5276 15.1887L15.925 14.6964L14.9918 13.5428C14.6026 12.9238 14.0164 12.5533 13.3787 12.4502C13.8664 12.4174 14.3494 12.2345 14.7667 11.8828L16.0047 11.0715L14.823 10.1758C14.5557 9.91325 14.2509 9.73974 13.932 9.62251C14.1993 9.42087 14.4291 9.15358 14.6073 8.83001L15.4654 7.62016L14.0399 7.21688C13.4818 6.98241 12.9097 6.96366 12.4033 7.12778C12.7644 6.83705 13.0457 6.43376 13.1958 5.93669L13.7913 4.58148L12.3142 4.47362C11.0715 4.23447 9.96014 4.90035 9.59437 6.1102L9.11606 7.19343C8.82063 6.8558 8.50176 6.54162 8.15475 6.25557L9.29895 5.64596C10.4807 5.19109 11.0621 4.03283 10.7292 2.8136L10.5135 1.34584L9.20516 2.03986C8.02345 2.49472 7.44197 3.65299 7.77491 4.8769L7.95311 6.08675C7.5592 5.78195 7.13716 5.51934 6.68699 5.28957L7.24502 4.27198C7.98593 3.24502 7.84056 1.95545 6.88863 1.11606L5.90856 0L5.19578 1.29894C4.45487 2.32591 4.60023 3.61547 5.55217 4.45486L6.0211 4.98007C5.91794 4.93787 5.81946 4.89566 5.71161 4.85815C5.52872 4.79719 5.34115 4.86753 5.23329 5.01758L4.46424 4.13599C3.75147 3.09027 2.49472 2.78077 1.37866 3.38101L0 3.92497L0.970692 5.04103C1.43963 5.73036 2.14302 6.10082 2.89332 6.10082C3.01993 6.10082 3.14654 6.08675 3.26846 6.06331C2.67292 6.29308 2.18523 6.7714 1.92732 7.44666L1.24267 8.76436L2.71043 8.966C2.93083 9.02227 3.15123 9.05041 3.36694 9.05041C3.74678 9.05041 4.10785 8.95662 4.42673 8.78781C4.3095 9.13482 4.26729 9.51934 4.32356 9.92263L4.36108 11.4045L5.74443 10.8746C5.85698 10.8464 5.96483 10.8042 6.068 10.762C6.03517 10.8746 6.00235 10.9918 5.98359 11.1137L5.58499 12.5393L7.06213 12.4408C7.08089 12.4408 7.09965 12.4361 7.11841 12.4408C6.88394 12.6518 6.67761 12.9097 6.52755 13.2239L5.73036 14.4713L7.17468 14.8042C7.34349 14.8652 7.51231 14.9027 7.68113 14.9261C7.06213 14.9777 6.47597 15.2778 6.03986 15.8265L4.98476 16.8675L6.32122 17.51C6.73857 17.7773 7.18875 17.9086 7.62485 17.9086C8.3095 17.9086 8.97069 17.5944 9.45369 16.9894L9.50997 16.9332C8.19226 20.1172 5.35522 22.4525 1.61782 23.1653C1.38804 23.2075 1.23798 23.4326 1.28019 23.6577C1.3177 23.8593 1.4959 24 1.69285 24C1.72098 24 1.74443 23.9953 1.77257 23.9906C5.57562 23.2638 8.51114 20.9801 10.0258 17.8429L9.96952 19.0856C9.7585 20.3329 10.4572 21.4256 11.6811 21.7632L13.0551 22.3212L13.1254 20.8394C13.3365 19.592 12.6377 18.4994 11.4138 18.1618L10.1336 17.6366C10.3634 17.1301 10.551 16.6049 10.7104 16.061L10.8886 16.6893C11.0856 17.9367 12.0938 18.7573 13.3599 18.687L14.837 18.7855L14.4338 17.3599C14.2368 16.1079 13.2192 15.2919 11.9625 15.3623L10.9027 15.2919C11.0012 14.8277 11.0762 14.354 11.1184 13.871L11.4701 14.3212ZM9.52872 2.80891L9.85698 2.64009L9.90387 2.94959L9.91325 3.00117C10.143 3.81243 9.76788 4.55803 8.98007 4.85346L8.65182 5.02227L8.60492 4.71278L8.59555 4.6612C8.36108 3.84994 8.73623 3.10434 9.52872 2.80891ZM5.8898 1.77257L6.07269 1.449L6.28371 1.68347L6.32122 1.72098C6.95897 2.27433 7.05276 3.09965 6.551 3.7796L6.36811 4.10317L6.16178 3.8687L6.12427 3.83118C5.48652 3.28253 5.39273 2.45252 5.8898 1.77257ZM10.8136 19.2169L10.8324 18.8511L11.1231 18.9683L11.1747 18.9871C11.9906 19.2028 12.4408 19.9015 12.2907 20.7362L12.272 21.102L11.9812 20.9848L11.9297 20.966C11.1137 20.7503 10.6635 20.0469 10.8136 19.2169ZM11.9672 16.2204H11.9953C12.8347 16.1594 13.4865 16.6893 13.6084 17.524L13.7069 17.8804L13.3646 17.857H13.3365C12.5018 17.9179 11.8453 17.388 11.7233 16.5533L11.6249 16.197L11.9672 16.2204ZM11.1653 12.9472C11.1653 12.8253 11.1747 12.7081 11.1747 12.5862C11.17 12.1735 11.1278 11.7655 11.0668 11.3669L11.5967 11.7702C11.9672 12.1313 12.4033 12.347 12.8581 12.422C12.5533 12.4455 12.2438 12.5252 11.9437 12.6753L11.1653 12.9472ZM10.5744 9.58499L11.6108 9.88042C11.6764 9.90856 11.7421 9.932 11.803 9.95076C11.7515 9.98828 11.6999 10.0164 11.6483 10.0586L10.8886 10.5557C10.8089 10.2227 10.7011 9.89918 10.5744 9.58499ZM14.2884 14.007L14.5182 14.2978L14.2227 14.4009L14.1712 14.4244C13.4209 14.8042 12.619 14.5791 12.1782 13.8617L11.9484 13.5709L12.2438 13.4678L12.2954 13.4443C13.0457 13.0598 13.8476 13.2849 14.2884 14.007ZM14.5463 11.0152L14.2837 11.1887L14.2415 11.2216C13.5991 11.7749 12.7691 11.7421 12.1688 11.1512L11.8781 10.9261L12.1407 10.7526L12.1829 10.7198C12.8206 10.1665 13.6553 10.1993 14.2556 10.7902L14.5463 11.0152ZM13.7304 7.99531L14.0821 8.09848L13.8992 8.35639L13.871 8.40328C13.4771 9.14889 12.6893 9.42556 11.9156 9.09261L11.5639 8.98945L11.7468 8.73154L11.7749 8.68464C12.1735 7.93904 12.9566 7.66237 13.7304 7.99531ZM10.3775 6.41501L10.3962 6.36342C10.6307 5.55217 11.3435 5.12075 12.1735 5.29426L12.5393 5.32239L12.4127 5.60844L12.3939 5.66002C12.1594 6.47128 11.442 6.89801 10.6166 6.72919L10.2509 6.70105L10.3775 6.41501ZM10.476 7.56389C10.6448 7.59672 10.8136 7.61547 10.9777 7.61547C11.2263 7.61547 11.4607 7.57796 11.6858 7.50762C11.4326 7.70457 11.2122 7.9578 11.0434 8.26729L10.3962 9.17702C10.1196 8.5721 9.77257 8 9.3646 7.48417L10.476 7.56389ZM9.39273 9.05041L8.45487 9.11137C8.09379 9.09261 7.75616 9.15357 7.44666 9.27081C7.53576 8.95193 7.56858 8.60492 7.517 8.23916L7.47948 6.78077C8.26729 7.39977 8.91442 8.1735 9.39273 9.05041ZM1.66002 4.55334L1.42087 4.27198L1.71161 4.15944L1.76319 4.13599C2.49941 3.72802 3.31067 3.92497 3.77491 4.62837L4.01407 4.90973L3.72333 5.02227L3.67175 5.04572C2.93552 5.45369 2.12427 5.25205 1.66002 4.55334ZM4.05627 5.79601L5.16764 5.35991C5.20047 5.49121 5.29426 5.60844 5.43025 5.65533C6.17585 5.91325 6.8558 6.29308 7.46073 6.76671L6.09613 7.28722C5.8898 7.3388 5.70692 7.41852 5.53341 7.50762L6.21805 6.18992L4.75029 5.98828C4.40328 5.89918 4.07034 5.88511 3.75147 5.93669C3.85463 5.89449 3.9578 5.85229 4.05627 5.79601ZM2.91208 8.14537L2.54631 8.0891L2.69168 7.81243L2.71512 7.76084C3.00117 6.96835 3.74209 6.58382 4.55803 6.80891L4.9238 6.86518L4.77843 7.14185L4.75498 7.19343C4.46424 7.98593 3.72333 8.37046 2.91208 8.14537ZM5.52872 10.0633L5.18171 10.1899L5.17233 9.87573L5.16764 9.81946C5.03634 8.98476 5.50059 8.29543 6.32122 8.09848L6.66823 7.97186L6.67761 8.28605L6.6823 8.34232C6.8136 9.17702 6.34936 9.86635 5.52872 10.0633ZM7.06682 11.5967L6.7245 11.6202L6.80891 11.32L6.81829 11.2638C6.93552 10.4666 7.52638 9.95545 8.3095 9.95545C8.34701 9.95545 8.38453 9.95545 8.42673 9.96014H8.45487L8.79719 9.93669L8.71278 10.2368L8.7034 10.2931C8.58148 11.1278 7.94373 11.653 7.09496 11.6014L7.06682 11.5967ZM9.53341 10.4431L9.73036 9.74443C10.0539 10.5135 10.2509 11.3482 10.3072 12.2157L9.46776 12.0234C9.22861 11.939 8.98945 11.8968 8.75498 11.8828C9.16295 11.5311 9.44431 11.0387 9.53341 10.4431ZM7.09027 13.9226L7.25909 13.66L7.28722 13.6131C7.64361 12.8488 8.41735 12.5346 9.20516 12.83L9.56624 12.9144L9.39742 13.177L9.36929 13.2239C9.0129 13.9883 8.23916 14.3072 7.45135 14.007L7.09027 13.9226ZM8.84408 16.4174L8.80657 16.4596C8.29074 17.1254 7.46542 17.2614 6.76202 16.8019L6.43376 16.6377L6.65885 16.4174L6.69637 16.3751C7.21219 15.7093 8.03283 15.5733 8.74091 16.0328L9.06917 16.197L8.84408 16.4174ZM9.17702 15.3107C8.87222 15.1137 8.54396 15.0012 8.2204 14.9496C9.02227 14.8839 9.73505 14.4103 10.1196 13.6038L10.3118 13.3036C10.2743 14.129 10.1524 14.9215 9.94607 15.6811L9.17702 15.3107Z" fill="black"/>
	</symbol>
	<symbol id="seaweed">
		<path d="M23.5312 15.5625H20.8922C20.9906 15.3891 21.0469 15.1922 21.0469 14.9813V13.8844C21.0469 13.7156 21.1687 13.5984 21.3422 13.5984H22.7531C23.4422 13.5984 24 13.0313 24 12.3328C24 10.9969 23.4797 9.74531 22.5375 8.79844C21.7453 8.00625 20.4094 8.58281 20.4094 9.67969C20.4094 9.84844 20.2734 9.98906 20.1 9.98906H18.6891C18.5344 9.98906 18.3844 10.0172 18.2438 10.0734L18.0984 9.675C18.0422 9.51562 18.1219 9.3375 18.2812 9.28125L19.3125 8.90625C19.9594 8.67188 20.2922 7.95469 20.0578 7.30781L19.6828 6.27656C19.6266 6.11719 19.7062 5.93906 19.8656 5.88281C20.9109 5.50313 20.9719 4.05469 19.9641 3.58125C18.7547 3.01875 17.4 2.95781 16.1437 3.4125C15.4969 3.64688 15.1641 4.36406 15.3984 5.01094L15.7734 6.04219C15.8297 6.20156 15.75 6.37969 15.5906 6.43594L14.9531 6.66563C14.9578 6.34219 14.8359 6.01875 14.5875 5.775L13.8094 4.99688C13.6875 4.875 13.6875 4.68281 13.8094 4.56094L14.5875 3.78281C15.075 3.29531 15.075 2.50781 14.5875 2.02031C13.65 1.08281 12.3984 0.5625 11.0625 0.5625C9.94219 0.5625 9.40312 1.9125 10.1812 2.69062C10.3031 2.8125 10.3031 3.00469 10.1812 3.12656L9.40313 3.90469C8.91563 4.39219 8.91563 5.17969 9.40313 5.66719L10.1812 6.44531C10.3031 6.56719 10.3031 6.75938 10.1812 6.88125L9.89062 7.17188C9.75469 7.01719 9.58125 6.89531 9.37969 6.82031L8.34844 6.44531C8.26875 6.41719 8.20781 6.36094 8.175 6.28594C8.14219 6.21094 8.1375 6.12656 8.16562 6.05156L8.54062 5.02031C8.775 4.37344 8.44219 3.66094 7.79531 3.42188C6.54375 2.96719 5.18438 3.02344 3.975 3.59063C2.97188 4.05938 3.03281 5.50781 4.07344 5.8875C4.23281 5.94375 4.31719 6.12188 4.25625 6.28125L3.88125 7.3125C3.64688 7.95938 3.97969 8.67188 4.62656 8.91094L5.65781 9.28594C5.81719 9.34219 5.90156 9.52031 5.84062 9.67969L5.69531 10.0734C5.55469 10.0172 5.4 9.98906 5.25 9.98906H3.89062C3.72187 9.98906 3.58125 9.85313 3.58125 9.67969C3.58125 8.58281 2.24531 8.00625 1.45312 8.79844C0.534375 9.72656 0 11.0203 0 12.3469C0 13.0359 0.557813 13.5938 1.24688 13.5938H2.60625C2.77969 13.5938 2.90625 13.7156 2.90625 13.8797V14.9766C2.90625 15.1875 2.95781 15.3844 3.05156 15.5578H0.46875C0.210938 15.5578 0 15.7688 0 16.0266C0 16.2844 0.210938 16.4953 0.46875 16.4953C1.36875 16.4953 22.2375 16.4953 23.5312 16.4953C23.7891 16.4953 24 16.2844 24 16.0266C24 15.7688 23.7891 15.5625 23.5312 15.5625ZM6.0375 15.5625C5.81719 15.3797 5.54063 15.2813 5.25469 15.2813H4.15781C3.98437 15.2813 3.84375 15.1453 3.84375 14.9813V13.8844C3.84375 13.1953 3.3 12.6609 2.60625 12.6609H1.24688C1.07812 12.6609 0.9375 12.525 0.9375 12.3516C0.9375 11.2688 1.36875 10.2188 2.12813 9.46406C2.32031 9.27188 2.65312 9.40781 2.65312 9.67969C2.65312 10.3688 3.21094 10.9266 3.9 10.9266L5.25937 10.9219C5.35312 10.9219 5.44219 10.9688 5.50313 11.0391C5.51719 11.0719 5.53594 11.1047 5.55937 11.1328C5.57344 11.1656 5.57812 11.2031 5.57812 11.2406V12.3281C5.57812 13.0266 6.13125 13.5938 6.81094 13.5938H7.90781C8.07656 13.5938 8.20312 13.7156 8.20312 13.8797V14.9766C8.20312 15.1875 8.25469 15.3844 8.35312 15.5578H6.0375V15.5625ZM10.5609 15.2813H9.46406C9.29062 15.2813 9.14531 15.1453 9.14531 14.9813V13.8844C9.14531 13.1953 8.60625 12.6609 7.9125 12.6609H6.81562C6.65625 12.6609 6.52031 12.5109 6.52031 12.3328V11.2359C6.52031 11.0859 6.49219 10.9406 6.44062 10.8047L6.73125 10.0031C6.96563 9.35625 6.63281 8.64375 5.98594 8.40469L4.95469 8.02969C4.79531 7.97344 4.71094 7.79531 4.77188 7.63594L5.14688 6.60469C5.38125 5.95781 5.04844 5.24531 4.40156 5.00625C4.14375 4.9125 4.125 4.55625 4.37813 4.43906C5.3625 3.97969 6.46406 3.93281 7.48125 4.30313C7.64063 4.35938 7.725 4.5375 7.66406 4.69688L7.28906 5.72813C7.17656 6.04219 7.19062 6.37969 7.33125 6.67969C7.47187 6.97969 7.72031 7.20938 8.03437 7.32188L9.06562 7.69688C9.14531 7.725 9.20625 7.78594 9.24375 7.86094C8.93437 8.34375 8.99063 8.99531 9.4125 9.4125L10.1906 10.1906C10.3125 10.3125 10.3125 10.5047 10.1906 10.6266L9.4125 11.4047C8.925 11.8922 8.925 12.6797 9.4125 13.1672L10.6406 14.3953C10.5562 14.6578 10.5563 14.9391 10.6547 15.2109L10.6828 15.2906C10.6406 15.2859 10.5984 15.2813 10.5609 15.2813ZM11.2453 13.6734L10.0688 12.4969C9.94688 12.375 9.94688 12.1828 10.0688 12.0609L10.8469 11.2828C11.3344 10.7953 11.3344 10.0078 10.8469 9.52031L10.0688 8.74219C9.94688 8.62031 9.94688 8.42813 10.0688 8.30625L10.8469 7.52813C11.3344 7.04063 11.3344 6.25313 10.8469 5.76563C10.1344 5.01563 9.97969 4.99219 9.97969 4.77188C9.97969 4.6875 10.0125 4.6125 10.0688 4.55625L10.8469 3.77813C11.3344 3.29063 11.3344 2.50313 10.8469 2.01563C10.6547 1.82344 10.7906 1.49063 11.0625 1.49063C12.1453 1.49063 13.1672 1.9125 13.9313 2.68125C14.0531 2.80313 14.0531 2.99531 13.9313 3.11719L13.1531 3.89531C12.6656 4.38281 12.6656 5.17031 13.1531 5.65781L13.9313 6.43594C14.0531 6.55781 14.0531 6.75 13.9313 6.87188L13.1531 7.65C12.6656 8.1375 12.6656 8.925 13.1531 9.4125L13.6922 9.95156L12.975 10.2141C12.6609 10.3266 12.4125 10.5563 12.2719 10.8563C12.1312 11.1563 12.1172 11.4938 12.2297 11.8078L12.6047 12.8391C12.6609 12.9984 12.5813 13.1766 12.4219 13.2328L11.3906 13.6078C11.3438 13.6266 11.2922 13.65 11.2453 13.6734ZM14.0156 8.94375L13.8187 8.74688C13.7062 8.63438 13.6969 8.45625 13.7953 8.33437C13.8187 8.40938 13.8141 8.39062 14.0156 8.94375ZM15.6328 13.3922L16.0078 14.4234C16.0641 14.5828 15.9844 14.7609 15.825 14.8172L14.7938 15.1922C14.5875 15.2672 14.4094 15.3938 14.2687 15.5625H11.7797L11.5312 14.8828C11.475 14.7234 11.5547 14.5453 11.7141 14.4891L12.7453 14.1141C13.3922 13.8797 13.725 13.1625 13.4906 12.5156L13.1156 11.4844C13.0875 11.4094 13.0922 11.325 13.125 11.25C13.1578 11.175 13.2234 11.1188 13.2984 11.0906L14.3297 10.7156C14.4891 10.6594 14.6297 10.5703 14.7516 10.4578L14.7562 10.4531C14.7609 10.4484 14.7656 10.4438 14.7703 10.4391C15.1219 10.0969 15.2438 9.58125 15.075 9.12188L14.7 8.09063C14.6438 7.93125 14.7234 7.75313 14.8828 7.69688L15.9141 7.32188C16.5609 7.0875 16.8937 6.375 16.6594 5.72344L16.2844 4.69219C16.2281 4.53281 16.3078 4.35469 16.4672 4.29844C17.4844 3.92813 18.5859 3.975 19.5703 4.43438C19.8188 4.55156 19.8047 4.90781 19.5469 5.00156C18.9 5.23594 18.5672 5.94844 18.8016 6.59531L19.1766 7.62656C19.2328 7.78594 19.1531 7.96406 18.9938 8.02031L17.9625 8.39531C17.3156 8.62969 16.9828 9.34688 17.2172 9.99375L17.5453 10.8891C17.55 10.9594 17.5734 11.0297 17.6109 11.0906C17.6297 11.2313 17.55 11.3672 17.4094 11.4188L16.3781 11.7938C15.7312 12.0328 15.3984 12.7453 15.6328 13.3922ZM20.1094 13.8797V14.9766C20.1094 15.15 19.9406 15.2297 19.7859 15.2297H18.6891C18.4125 15.2297 18.1359 15.3469 17.9016 15.5578H16.4156C16.875 15.2484 17.0906 14.6531 16.8891 14.1L16.5141 13.0688C16.4578 12.9094 16.5375 12.7313 16.6969 12.675L17.7281 12.3C18.3 12.0938 18.6141 11.5172 18.5344 10.9594C18.5812 10.9359 18.6328 10.9172 18.6844 10.9172H20.0953C20.7844 10.9172 21.3422 10.3641 21.3422 9.675C21.3422 9.39844 21.675 9.2625 21.8672 9.45938C22.6406 10.2234 23.0625 11.2453 23.0625 12.3281C23.0625 12.5016 22.9172 12.6563 22.7531 12.6563H21.3422C20.6484 12.6563 20.1094 13.1953 20.1094 13.8797Z" fill="black"/>
	</symbol>
	<symbol id="seeds">
		<g clip-path="url(#clip0)">
		<path d="M26.4822 14.1448L26.3037 13.4356L25.6462 13.971C25.4114 13.3135 25.1624 12.919 25.0497 12.7546L24.9229 12.5761L24.7022 12.5573C24.5566 12.5479 24.2372 12.5385 23.7769 12.5949L24.0681 11.7072L23.2556 11.9045C23.0301 11.9608 22.7812 12.0313 22.5135 12.1205C22.5135 12.1205 22.5135 12.1205 22.5135 12.1158C22.6168 6.76162 20.3624 4.3851 20.1041 4.13618C20.0994 4.13148 20.0947 4.13148 20.09 4.12679C20.0853 4.12209 20.0806 4.1127 20.0759 4.108C20.0431 4.08452 20.0102 4.07043 19.9726 4.05164C19.9538 4.04225 19.9397 4.03285 19.9209 4.02346C19.8599 4.00467 19.7941 3.99528 19.7284 3.99998C19.7284 3.99998 19.7284 3.99998 19.7237 3.99998C19.3667 4.03755 16.1213 4.48373 12.8337 8.75301C12.6458 9.03951 12.472 9.34009 12.3076 9.64538C10.8141 8.57454 9.6728 8.30213 9.33933 8.24107C9.20313 8.21759 9.06223 8.25516 8.9589 8.3444C8.78982 8.49 7.78474 9.40585 6.991 11.3738C6.9816 11.3972 6.97221 11.416 6.96282 11.4395C6.49315 12.6278 6.09863 14.1824 6 16.1784C6.03757 17.3338 6.21605 18.5127 6.53542 19.6775C6.85479 20.8422 7.30098 21.946 7.87867 22.9933C9.22192 25.0129 10.4431 25.5154 11.4387 25.5154C12.0305 25.5154 12.5472 25.337 12.9558 25.1961C13.1718 25.1209 14.1065 24.8579 14.2614 24.825C14.7264 25.7691 15.5249 26.1589 16.1072 26.4407C16.3139 26.5393 17.3049 27.1076 17.4975 27.2297C17.9953 27.5585 18.6622 28 19.5875 28C20.4658 28 21.5742 27.6008 22.9879 26.3233C23.7816 25.4779 24.4861 24.5197 25.0826 23.4677C25.6791 22.4203 26.1487 21.3213 26.4775 20.1706C27.0411 17.4184 26.7922 15.3753 26.4822 14.1448ZM23.4528 13.5906C23.8755 13.5013 24.1996 13.4826 24.411 13.4779C24.5331 13.6892 24.7115 14.0556 24.8759 14.591L22.4947 16.5166L23.4528 13.5906ZM18.62 5.24929C18.2489 5.8035 17.8779 6.43285 17.4834 7.18902C17.3659 7.41446 17.4505 7.69626 17.6759 7.81837C17.7464 7.85594 17.8215 7.87003 17.892 7.87003C18.0611 7.87003 18.2207 7.7808 18.3053 7.62111C18.8313 6.62072 19.3057 5.85516 19.7941 5.20232C20.4282 6.03833 21.6587 8.17062 21.5836 12.0595C21.5695 12.2051 21.5507 12.3507 21.5272 12.4963C21.5131 12.501 21.5037 12.5057 21.4896 12.515C21.3675 12.5714 21.2407 12.6278 21.1092 12.6935C21.0247 12.7358 20.9401 12.7781 20.8556 12.8203C20.8086 12.8438 20.7569 12.872 20.71 12.8955C20.2356 13.1491 19.7659 13.4356 19.2963 13.7597C19.2634 13.7785 19.2352 13.8019 19.2023 13.8254C19.0943 13.9006 18.9863 13.9804 18.8783 14.0603C18.8313 14.0931 18.789 14.126 18.7421 14.1636C18.6434 14.2387 18.5448 14.3139 18.4462 14.3937C18.3851 14.4454 18.3194 14.497 18.2536 14.5487C18.1691 14.6145 18.0892 14.6849 18.0047 14.7554C17.8544 14.8822 17.7041 15.0137 17.5538 15.1499C17.3566 15.3612 17.164 15.5773 16.9761 15.8027C16.591 16.2677 16.2294 16.7608 15.8959 17.2822C15.7456 17.517 15.6 17.7565 15.4591 18.0008C15.4403 18.0336 15.4215 18.0712 15.4027 18.1041C15.2431 18.3859 15.0975 18.6724 14.9566 18.9636C14.9519 18.9683 14.9519 18.9777 14.9472 18.9871L14.9378 19.0105C14.9331 19.0199 14.9284 19.0293 14.9237 19.0387C14.9096 19.0716 14.8908 19.1092 14.8767 19.142C15.2431 16.1456 15.9147 13.3323 16.8869 10.7726C16.9761 10.533 16.8587 10.2653 16.6145 10.1714C16.375 10.0822 16.1025 10.1996 16.0133 10.4438C14.9894 13.1538 14.2849 16.1362 13.9186 19.3158C13.8341 19.2923 13.7542 19.2642 13.665 19.2407C12.6411 18.9542 11.3636 18.6019 11.4247 15.4927C11.5327 14.4125 11.7816 13.3229 12.1573 12.252C12.3546 11.6884 12.5988 11.1201 12.8806 10.5565C12.8806 10.5518 12.8806 10.5518 12.8853 10.5471C13.1061 10.1103 13.3409 9.68765 13.5945 9.29313C15.553 6.75692 17.4364 5.69548 18.62 5.24929ZM13.9796 23.9327C13.8012 23.9749 12.9605 24.2098 12.6552 24.3178C11.6501 24.6653 10.4008 25.1021 8.6771 22.5143C8.15108 21.5655 7.73307 20.5276 7.43718 19.4332C7.13659 18.3389 6.96751 17.2352 6.93464 16.1878C7.02387 14.4501 7.34325 13.088 7.73307 12.0313C8.43288 11.9984 9.13268 11.9045 9.809 11.7354C10.0579 11.6743 10.2129 11.4207 10.1472 11.1718C10.0861 10.9229 9.83249 10.7679 9.58356 10.8289C9.1092 10.9464 8.62544 11.0215 8.13699 11.0685C8.62544 10.0681 9.13738 9.4716 9.40039 9.20389C9.82309 9.31191 10.7342 9.62659 11.8849 10.4767C11.8708 10.5049 11.8614 10.5377 11.8474 10.5659C11.7534 10.7679 11.6595 10.9745 11.575 11.1812C11.4716 11.4348 11.373 11.6837 11.2885 11.9327C10.8892 13.0693 10.6262 14.234 10.5041 15.4223C10.429 19.2876 12.3076 19.8137 13.4254 20.1237C13.6462 20.1847 14.3037 20.4665 14.3178 20.4665C14.3225 20.4665 14.3366 20.4665 14.3366 20.4665C14.3272 20.49 14.3225 20.5182 14.3131 20.5464C14.2239 20.7906 14.1487 21.0254 14.083 21.2509C14.0783 21.2649 14.0783 21.2743 14.0736 21.2884C14.0219 21.5374 13.9843 21.7722 13.9562 21.9976C13.9468 22.0728 13.9421 22.1479 13.9327 22.2231C13.9186 22.3687 13.9045 22.519 13.8951 22.6552C13.8904 22.7303 13.8904 22.7961 13.8904 22.8712C13.8857 23.0121 13.8904 23.1483 13.8951 23.2798C13.8998 23.3315 13.8998 23.3831 13.9045 23.4301C13.9186 23.6039 13.9374 23.7636 13.9656 23.9139C13.975 23.9186 13.975 23.928 13.9796 23.9327ZM25.5804 19.9546C25.2798 20.9972 24.8431 22.0258 24.2795 23.0121C23.7205 23.9984 23.0583 24.9002 22.3444 25.661C20.0102 27.7698 18.9065 27.0419 18.0188 26.4548C17.7511 26.2763 16.807 25.7409 16.5205 25.6C15.9523 25.3229 15.3041 25.0035 14.9988 24.1581C14.9988 24.1487 14.9988 24.1393 14.9941 24.1346C14.7687 23.4865 14.7687 22.5988 14.9894 21.4998C15.0458 21.3025 15.1115 21.1006 15.182 20.9033C15.2431 20.7248 15.3135 20.537 15.3933 20.335C15.5155 20.0203 15.6517 19.7103 15.7926 19.4098C15.802 19.3863 15.816 19.3581 15.816 19.3581C15.816 19.3581 15.816 19.3581 15.816 19.3534C15.9616 19.0434 16.1166 18.7475 16.281 18.4563C16.4125 18.2262 16.5487 18.0008 16.6896 17.78C16.8352 17.5546 16.9855 17.3338 17.1405 17.1225L17.1452 17.1178C17.1452 17.1178 17.1452 17.1178 17.1452 17.1131C17.4834 16.6481 17.8403 16.2066 18.216 15.8074C18.4086 15.6336 18.6012 15.4693 18.789 15.3143C18.8454 15.2673 18.9018 15.225 18.9534 15.1781C19.0943 15.0653 19.2305 14.9573 19.3667 14.8587C19.4231 14.8164 19.4795 14.7741 19.5358 14.7319C19.6814 14.6285 19.8223 14.5252 19.9632 14.4313C20.0055 14.4031 20.0477 14.3749 20.09 14.3467C20.4611 14.1025 20.818 13.8912 21.1609 13.708C21.2313 13.6704 21.3018 13.6375 21.3675 13.6047C21.4661 13.5577 21.5648 13.506 21.6587 13.4591C21.7761 13.4027 21.8935 13.3511 22.011 13.3041C22.2317 13.2102 22.4477 13.1256 22.645 13.0552L20.6254 19.2313L25.726 15.1029C25.9233 16.2536 25.9937 17.888 25.5804 19.9546Z" fill="black"/>
		<path d="M19.5827 15.9389C19.4371 16.0235 16.0461 18.1135 15.8301 22.3311C15.816 22.5894 16.0132 22.8055 16.2715 22.8196C16.2809 22.8196 16.2856 22.8196 16.295 22.8196C16.5392 22.8196 16.7459 22.627 16.76 22.3781C16.9479 18.6677 20.0289 16.7562 20.0617 16.7374C20.2825 16.6059 20.3529 16.3194 20.2214 16.0986C20.0899 15.8779 19.8034 15.8074 19.5827 15.9389Z" fill="black"/>
		</g>
		<defs>
		<clipPath id="clip0">
		<rect width="20.8157" height="24" fill="white" transform="translate(6 4)"/>
		</clipPath>
		</defs>
	</symbol>
</svg>