<svg width="32" height="20" viewBox="0 0 32 20" fill="none" xmlns="http://www.w3.org/2000/svg">
<path d="M30.525 8.01875H26.0563C25.7938 8.01875 25.5875 8.23125 25.5875 8.4875C25.5875 8.75 25.8 8.95625 26.0563 8.95625H30.525C30.8188 8.95625 31.0563 9.19375 31.0563 9.4875V9.64375C31.0563 9.90625 30.8688 10.125 30.6125 10.1687L16.4188 12.5312C16.1938 12.5688 16.025 12.7625 16.025 12.9937V15.5C16.025 17.45 14.4375 19.0375 12.4875 19.0375H4.46875C2.51875 19.0375 0.93125 17.45 0.93125 15.5V8.95625H23.7438C24.0063 8.95625 24.2125 8.74375 24.2125 8.4875C24.2125 8.225 24 8.01875 23.7438 8.01875H16.8063C16.5375 7.375 15.8375 5.80625 14.7438 4.2125C12.8563 1.45625 10.6875 0 8.48125 0C6.275 0 4.1 1.45625 2.20625 4.2125C0.8125 6.2375 0.05625 8.2375 0.025 8.31875V8.325C0.01875 8.3375 0.01875 8.35 0.0125 8.3625C0.0125 8.36875 0.0125 8.36875 0.00625 8.375C0 8.3875 0 8.4 0 8.41875C0 8.425 0 8.425 0 8.43125C0 8.45 0 8.46875 0 8.48125V15.5C0 17.9688 2.00625 19.975 4.475 19.975H12.4938C14.9625 19.975 16.9688 17.9688 16.9688 15.5V13.3938L30.7688 11.0938C31.4813 10.975 32 10.3625 32 9.64375V9.4875C31.9938 8.675 31.3313 8.01875 30.525 8.01875ZM8.48125 0.9375C12.3125 0.9375 14.9688 6.16875 15.7938 8.0125H1.16875C1.9875 6.16875 4.64375 0.9375 8.48125 0.9375Z" fill="black"/>
</svg>
